{
.appVersion = "1231";
classes = (
{
automatic = 1;
code = "A B C D E F G H I J K L M N O P Q Q_P Q_u R S T U V W X Y Z a a_hook a_macr a_e b b_hook c c_hook c_ra c_t d d_strok e e_hook e_macr f f_f g g_ra h h_strok i idotless i_macr j k l l_strok m n n_hook n_macr o o_hook o_macr o_e p p_bardes p_hook p_flour p_ra q q_bardes q_ring q_etfin q_etfin_ring q_etfin_ra q_strok r r_hook r_macr r_ra s s_ra longs longs_i longs_longs longs_strok longs_t longs_z t t_acute t_hook t_ra u u_macr v w x y z con etfin rum usmod o_exp r_exp t_exp";
name = AllLetters;
}
);
copyright = "Copyright (c) 2019 ANRT. All rights reserved.";
customParameters = (
{
name = glyphOrder;
value = (
.notdef,
emspace,
enspace,
threeperemspace,
fourperemspace,
space,
thinspace,
hairspace,
A,
B,
C,
C,
D,
E,
F,
G,
H,
I,
J,
K,
L,
M,
N,
O,
P,
Q,
Q_P,
Q_u,
R,
S,
T,
U,
V,
W,
X,
Y,
Z,
a,
a_hook,
a_macr,
a_e,
b,
b_hook,
c,
c_hook,
c_ra,
c_t,
d,
d_strok,
e,
e_hook,
e_macr,
f,
f_f,
g,
g_ra,
h,
h_strok,
i,
idotless,
i_macr,
j,
k,
l,
l_strok,
m,
n,
n_hook,
n_macr,
o,
o_hook,
o_macr,
o_e,
p,
p_bardes,
p_hook,
p_flour,
p_ra,
q,
q_bardes,
q_ring,
q_p,
q_etfin,
q_etfin_ring,
q_etfin_ra,
q_strok,
r,
r_hook,
r_macr,
r_ra,
s,
s_ra,
longs,
longs_i,
longs_longs,
longs_strok,
longs_t,
longs_z,
t,
t_acute,
t_hook,
t_ra,
u,
u_macr,
v,
w,
x,
y,
z,
ampersand,
con,
etfin,
rum,
usmod,
parenleft,
parenright,
period,
colon,
question,
hyphen,
o_exp,
r_exp,
t_exp,
bardes,
flour,
hook,
longhook,
macr,
ra,
ring,
tilde
);
},
{
name = license;
value = "SIL OPEN FONT LICENSE (OFL 1.1)";
},
{
name = licenseURL;
value = "https://opensource.org/licenses/OFL-1.1";
},
{
name = "Use Typo Metrics";
value = 1;
},
{
name = description;

glyphs = (
{
color = 3;
glyphname = A;
layers = (
{
anchors = (
{
name = bottom;
position = "{339, 0}";
},
{
name = ogonek;
position = "{609, 10}";
},
{
name = top;
position = "{339, 700}";
}
);
layerId = "03FD986C-C76B-4420-A04C-E6CCB975BB31";
paths = (
{
closed = 1;
nodes = (
"163 329 LINE",
"163 290 LINE",
"499 290 LINE",
"494 329 LINE"
);
},
{
closed = 1;
nodes = (
"98 111 OFFCURVE",
"238 388 OFFCURVE",
"337 626 CURVE",
"311 620 LINE",
"424 342 OFFCURVE",
"535 126 OFFCURVE",
"535 76 CURVE",
"535 48 OFFCURVE",
"515 39 OFFCURVE",
"445 25 CURVE",
"445 0 LINE",
"445 0 OFFCURVE",
"672 1 OFFCURVE",
"672 0 CURVE",
"672 25 LINE",
"638 60 OFFCURVE",
"408 628 OFFCURVE",
"372 700 CURVE",
"322 700 LINE",
"6 25 LINE",
"5 0 LINE",
"5 0 OFFCURVE",
"197 0 OFFCURVE",
"197 0 CURVE",
"197 21 LINE",
"109 50 OFFCURVE",
"98 52 OFFCURVE",
"98 74 CURVE"
);
}
);
userData = {
com.schriftgestaltung.Glyphs.lastChange = "2019-03-27 16:16:20 +0000";
com.typemytype.robofont.mark = (
0.6,
1,
0.929,
1
);
};
width = 677;
}
);
unicode = 0041;
},
{
color = 3;
glyphname = B;
layers = (
{
anchors = (
{
name = bottom;
position = "{333, 0}";
},
{
name = top;
position = "{333, 700}";
}
);
layerId = "03FD986C-C76B-4420-A04C-E6CCB975BB31";
paths = (
{
closed = 1;
nodes = (
"65 20 LINE",
"137 39 OFFCURVE",
"147 62 OFFCURVE",
"147 105 CURVE",
"147 196 OFFCURVE",
"150 490 OFFCURVE",
"147 584 CURVE",
"144 665 OFFCURVE",
"118 656 OFFCURVE",
"40 685 CURVE",
"43 710 LINE",
"172 698 OFFCURVE",
"215 711 OFFCURVE",
"348 711 CURVE",
"528 711 OFFCURVE",
"590 643 OFFCURVE",
"590 560 CURVE",
"590 482 OFFCURVE",
"515 422 OFFCURVE",
"451 375 CURVE",
"544 357 OFFCURVE",
"626 283 OFFCURVE",
"626 191 CURVE",
"626 39 OFFCURVE",
"485 -6 OFFCURVE",
"352 -6 CURVE",
"259 -6 OFFCURVE",
"154 3 OFFCURVE",
"65 -3 CURVE"
);
},
{
closed = 1;
nodes = (
"232 36 LINE",
"275 31 OFFCURVE",
"311 29 OFFCURVE",
"354 29 CURVE",
"458 29 OFFCURVE",
"538 79 OFFCURVE",
"538 178 CURVE",
"538 288 OFFCURVE",
"458 350 OFFCURVE",
"316 346 CURVE",
"282 345 OFFCURVE",
"258 345 OFFCURVE",
"224 335 CURVE",
"222 387 LINE",
"252 384 OFFCURVE",
"282 381 OFFCURVE",
"322 381 CURVE",
"429 381 OFFCURVE",
"500 441 OFFCURVE",
"500 530 CURVE",
"500 626 OFFCURVE",
"425 674 OFFCURVE",
"326 674 CURVE",
"296 674 OFFCURVE",
"263 669 OFFCURVE",
"232 661 CURVE"
);
}
);
userData = {
com.schriftgestaltung.Glyphs.lastChange = "2019-03-19 06:08:38 +0000";
com.typemytype.robofont.mark = (
0.6,
1,
0.929,
1
);
};
width = 676;
}
);
leftMetricsKey = H;
unicode = 0042;
},
{
color = 3;
glyphname = C;
layers = (
{
anchors = (
{
name = bottom;
position = "{368, 0}";
},
{
name = top;
position = "{368, 700}";
}
);
layerId = "03FD986C-C76B-4420-A04C-E6CCB975BB31";
paths = (
{
closed = 1;
nodes = (
"676 521 LINE",
"623 610 OFFCURVE",
"568 670 OFFCURVE",
"433 670 CURVE",
"257 670 OFFCURVE",
"140 529 OFFCURVE",
"140 355 CURVE",
"140 153 OFFCURVE",
"244 26 OFFCURVE",
"418 26 CURVE",
"532 26 OFFCURVE",
"623 61 OFFCURVE",
"667 164 CURVE",
"694 163 LINE",
"687 98 OFFCURVE",
"672 7 OFFCURVE",
"674 7 CURVE",
"589 3 OFFCURVE",
"504 -9 OFFCURVE",
"430 -9 CURVE",
"220 -9 OFFCURVE",
"40 92 OFFCURVE",
"40 355 CURVE",
"40 536 OFFCURVE",
"178 708 OFFCURVE",
"442 708 CURVE",
"523 708 OFFCURVE",
"613 691 OFFCURVE",
"694 689 CURVE",
"700 521 LINE"
);
}
);
userData = {
com.schriftgestaltung.Glyphs.lastChange = "2019-04-24 16:49:01 +0000";
com.typemytype.robofont.mark = (
0.6,
1,
0.929,
1
);
};
width = 736;
}
);
leftMetricsKey = O;
unicode = 0043;
},
{
color = 3;
glyphname = D;
layers = (
{
anchors = (
{
name = bottom;
position = "{425, 0}";
},
{
name = center;
position = "{425, 350}";
},
{
name = top;
position = "{425, 700}";
}
);
layerId = "03FD986C-C76B-4420-A04C-E6CCB975BB31";
paths = (
{
closed = 1;
nodes = (
"154 440 OFFCURVE",
"149 223 OFFCURVE",
"144 35 CURVE",
"144 35 OFFCURVE",
"57 29 OFFCURVE",
"57 29 CURVE",
"57 -6 LINE",
"57 -6 OFFCURVE",
"113 0 OFFCURVE",
"252 -5 CURVE",
"603 -18 OFFCURVE",
"800 86 OFFCURVE",
"800 356 CURVE",
"800 597 OFFCURVE",
"599 700 OFFCURVE",
"304 700 CURVE",
"191 700 OFFCURVE",
"133 700 OFFCURVE",
"50 718 CURVE",
"40 689 LINE",
"113 668 OFFCURVE",
"143 646 OFFCURVE",
"146 593 CURVE"
);
},
{
closed = 1;
nodes = (
"709 109 OFFCURVE",
"504 11 OFFCURVE",
"238 36 CURVE",
"232 199 OFFCURVE",
"228 439 OFFCURVE",
"242 651 CURVE",
"283 658 OFFCURVE",
"303 661 OFFCURVE",
"343 661 CURVE",
"532 661 OFFCURVE",
"709 573 OFFCURVE",
"709 342 CURVE"
);
}
);
userData = {
com.schriftgestaltung.Glyphs.lastChange = "2019-04-24 16:49:08 +0000";
com.typemytype.robofont.mark = (
0.6,
1,
0.929,
1
);
};
width = 840;
}
);
leftMetricsKey = H;
rightMetricsKey = O;
unicode = 0044;
},
{
color = 3;
glyphname = E;
layers = (
{
anchors = (
{
name = bottom;
position = "{345, 0}";
},
{
name = ogonek;
position = "{604, 10}";
},
{
name = top;
position = "{345, 700}";
},
{
name = topleft;
position = "{40, 700}";
}
);
layerId = "03FD986C-C76B-4420-A04C-E6CCB975BB31";
paths = (
{
closed = 1;
nodes = (
"211 375 LINE",
"212 333 LINE",
"470 333 LINE SMOOTH",
"534 333 OFFCURVE",
"573 327 OFFCURVE",
"587 250 CURVE",
"612 254 LINE",
"603 345 OFFCURVE",
"605 369 OFFCURVE",
"613 461 CURVE",
"588 464 LINE",
"577 390 OFFCURVE",
"541 375 OFFCURVE",
"466 375 CURVE"
);
},
{
closed = 1;
nodes = (
"223 40 LINE",
"223 656 LINE",
"489 656 LINE SMOOTH",
"572 656 OFFCURVE",
"587 631 OFFCURVE",
"605 577 CURVE",
"629 578 LINE",
"629 700 LINE",
"40 700 LINE",
"40 670 LINE",
"100 661 OFFCURVE",
"133 654 OFFCURVE",
"133 593 CURVE",
"137 121 LINE SMOOTH",
"138 53 OFFCURVE",
"115 32 OFFCURVE",
"43 30 CURVE",
"43 0 LINE",
"659 0 LINE",
"659 139 LINE",
"635 139 LINE",
"631 75 OFFCURVE",
"583 40 OFFCURVE",
"476 40 CURVE"
);
}
);
userData = {
com.schriftgestaltung.Glyphs.lastChange = "2019-04-24 16:49:01 +0000";
com.typemytype.robofont.mark = (
0.6,
1,
0.929,
1
);
};
width = 689;
}
);
leftMetricsKey = H;
unicode = 0045;
},
{
color = 3;
glyphname = F;
layers = (
{
anchors = (
{
name = bottom;
position = "{322, 0}";
},
{
name = top;
position = "{322, 700}";
}
);
layerId = "03FD986C-C76B-4420-A04C-E6CCB975BB31";
paths = (
{
closed = 1;
nodes = (
"211 341 LINE",
"212 299 LINE",
"454 299 LINE SMOOTH",
"518 299 OFFCURVE",
"556 293 OFFCURVE",
"570 216 CURVE",
"595 220 LINE",
"586 311 OFFCURVE",
"588 335 OFFCURVE",
"596 427 CURVE",
"571 430 LINE",
"560 356 OFFCURVE",
"525 341 OFFCURVE",
"450 341 CURVE"
);
},
{
closed = 1;
nodes = (
"223 656 LINE",
"460 656 LINE SMOOTH",
"551 656 OFFCURVE",
"556 631 OFFCURVE",
"585 577 CURVE",
"609 578 LINE",
"609 700 LINE",
"419 700 OFFCURVE",
"190 695 OFFCURVE",
"40 704 CURVE",
"40 674 LINE",
"100 665 OFFCURVE",
"132 658 OFFCURVE",
"133 597 CURVE",
"137 121 LINE SMOOTH",
"138 53 OFFCURVE",
"115 32 OFFCURVE",
"53 30 CURVE",
"53 0 LINE",
"337 0 LINE",
"337 30 LINE",
"239 45 OFFCURVE",
"223 47 OFFCURVE",
"223 116 CURVE"
);
}
);
userData = {
com.schriftgestaltung.Glyphs.lastChange = "2019-04-24 16:49:01 +0000";
com.typemytype.robofont.mark = (
0.6,
1,
0.929,
1
);
};
width = 639;
}
);
leftMetricsKey = H;
unicode = 0046;
},
{
color = 3;
glyphname = G;
layers = (
{
anchors = (
{
name = bottom;
position = "{389, 0}";
},
{
name = top;
position = "{389, 700}";
}
);
layerId = "03FD986C-C76B-4420-A04C-E6CCB975BB31";
paths = (
{
closed = 1;
nodes = (
"676 521 LINE",
"640 639 OFFCURVE",
"578 670 OFFCURVE",
"461 670 CURVE",
"255 670 OFFCURVE",
"138 539 OFFCURVE",
"138 355 CURVE",
"138 163 OFFCURVE",
"263 35 OFFCURVE",
"437 35 CURVE",
"538 35 OFFCURVE",
"588 60 OFFCURVE",
"638 94 CURVE",
"638 274 LINE SMOOTH",
"638 328 OFFCURVE",
"607 330 OFFCURVE",
"561 340 CURVE",
"561 370 LINE",
"609 369 OFFCURVE",
"669 369 OFFCURVE",
"717 370 CURVE",
"710 298 OFFCURVE",
"708 138 OFFCURVE",
"716 24 CURVE",
"621 20 OFFCURVE",
"524 1 OFFCURVE",
"430 1 CURVE",
"224 1 OFFCURVE",
"40 90 OFFCURVE",
"40 355 CURVE",
"40 546 OFFCURVE",
"168 708 OFFCURVE",
"452 708 CURVE",
"523 708 OFFCURVE",
"616 697 OFFCURVE",
"697 695 CURVE",
"702 521 LINE"
);
}
);
userData = {
com.schriftgestaltung.Glyphs.lastChange = "2019-04-24 16:49:01 +0000";
com.typemytype.robofont.mark = (
0.6,
1,
0.929,
1
);
};
width = 757;
}
);
leftMetricsKey = O;
rightMetricsKey = H;
unicode = 0047;
},
{
color = 3;
glyphname = H;
layers = (
{
anchors = (
{
name = bottom;
position = "{415, 0}";
},
{
name = center;
position = "{415, 350}";
},
{
name = top;
position = "{415, 700}";
},
{
name = topleft;
position = "{0, 700}";
}
);
layerId = "03FD986C-C76B-4420-A04C-E6CCB975BB31";
paths = (
{
closed = 1;
nodes = (
"687 335 LINE",
"687 375 LINE",
"162 375 LINE",
"162 335 LINE"
);
},
{
closed = 1;
nodes = (
"559 -2 LINE",
"635 1 OFFCURVE",
"712 1 OFFCURVE",
"788 -2 CURVE",
"788 23 LINE",
"762 34 OFFCURVE",
"744 47 OFFCURVE",
"742 73 CURVE",
"734 175 OFFCURVE",
"738 527 OFFCURVE",
"745 625 CURVE",
"747 654 OFFCURVE",
"771 669 OFFCURVE",
"790 678 CURVE",
"790 704 LINE",
"707 695 OFFCURVE",
"624 700 OFFCURVE",
"541 704 CURVE",
"541 674 LINE",
"634 659 OFFCURVE",
"647 668 OFFCURVE",
"649 637 CURVE",
"655 538 OFFCURVE",
"655 155 OFFCURVE",
"648 69 CURVE",
"645 34 OFFCURVE",
"656 37 OFFCURVE",
"559 28 CURVE"
);
},
{
closed = 1;
nodes = (
"291 25 LINE",
"185 37 OFFCURVE",
"185 36 OFFCURVE",
"184 60 CURVE",
"179 176 OFFCURVE",
"175 529 OFFCURVE",
"181 628 CURVE",
"183 659 OFFCURVE",
"186 664 OFFCURVE",
"289 673 CURVE",
"289 703 LINE",
"206 699 OFFCURVE",
"123 699 OFFCURVE",
"40 703 CURVE",
"40 673 LINE",
"79 658 OFFCURVE",
"83 641 OFFCURVE",
"85 608 CURVE",
"90 520 OFFCURVE",
"96 177 OFFCURVE",
"88 75 CURVE",
"86 49 OFFCURVE",
"68 36 OFFCURVE",
"42 25 CURVE",
"42 -5 LINE",
"95 0 OFFCURVE",
"178 0 OFFCURVE",
"291 -5 CURVE"
);
}
);
userData = {
com.schriftgestaltung.Glyphs.lastChange = "2019-03-19 06:57:53 +0000";
com.typemytype.robofont.mark = (
0.6,
1,
0.929,
1
);
};
width = 830;
}
);
unicode = 0048;
},
{
color = 3;
glyphname = I;
layers = (
{
anchors = (
{
name = bottom;
position = "{159, 0}";
},
{
name = ogonek;
position = "{285, 10}";
},
{
name = top;
position = "{162, 700}";
},
{
name = topleft;
position = "{20, 700}";
}
);
layerId = "03FD986C-C76B-4420-A04C-E6CCB975BB31";
paths = (
{
closed = 1;
nodes = (
"44 0 LINE",
"121 9 OFFCURVE",
"198 9 OFFCURVE",
"275 0 CURVE",
"275 30 LINE",
"229 41 OFFCURVE",
"211 82 OFFCURVE",
"209 108 CURVE",
"201 210 OFFCURVE",
"207 523 OFFCURVE",
"212 611 CURVE",
"214 650 OFFCURVE",
"238 661 OFFCURVE",
"277 670 CURVE",
"277 700 LINE",
"198 691 OFFCURVE",
"119 691 OFFCURVE",
"40 700 CURVE",
"40 670 LINE",
"101 646 OFFCURVE",
"114 644 OFFCURVE",
"117 593 CURVE",
"122 514 OFFCURVE",
"119 209 OFFCURVE",
"114 113 CURVE",
"112 78 OFFCURVE",
"93 42 OFFCURVE",
"44 30 CURVE"
);
}
);
userData = {
com.schriftgestaltung.Glyphs.lastChange = "2019-03-19 06:56:51 +0000";
com.typemytype.robofont.mark = (
1,
0.6,
0.6,
1
);
};
width = 317;
}
);
leftMetricsKey = H;
rightMetricsKey = H;
unicode = 0049;
},
{
color = 6;
glyphname = J;
layers = (
{
layerId = "03FD986C-C76B-4420-A04C-E6CCB975BB31";
paths = (
{
closed = 1;
nodes = (
"-50 -153 OFFCURVE",
"3 -162 OFFCURVE",
"20 -162 CURVE",
"208 -162 OFFCURVE",
"291 61 OFFCURVE",
"291 189 CURVE",
"291 610 LINE SMOOTH",
"291 645 OFFCURVE",
"307 663 OFFCURVE",
"352 673 CURVE",
"352 701 LINE",
"125 701 LINE",
"125 669 LINE",
"184 660 OFFCURVE",
"189 647 OFFCURVE",
"189 591 CURVE",
"191 71 LINE SMOOTH",
"191 -31 OFFCURVE",
"154 -94 OFFCURVE",
"93 -94 CURVE",
"29 -94 OFFCURVE",
"-14 -63 OFFCURVE",
"-39 -44 CURVE",
"-54 -54 OFFCURVE",
"-80 -103 OFFCURVE",
"-80 -132 CURVE"
);
}
);
userData = {
com.schriftgestaltung.Glyphs.lastChange = "2019-03-12 17:26:32 +0000";
};
width = 392;
}
);
rightMetricsKey = I;
unicode = 004A;
},
{
color = 6;
glyphname = K;
layers = (
{
layerId = "03FD986C-C76B-4420-A04C-E6CCB975BB31";
paths = (
{
closed = 1;
nodes = (
"44 0 LINE",
"275 0 LINE",
"275 30 LINE",
"229 41 OFFCURVE",
"211 54 OFFCURVE",
"209 80 CURVE",
"201 182 OFFCURVE",
"207 523 OFFCURVE",
"213 631 CURVE",
"214 650 OFFCURVE",
"238 661 OFFCURVE",
"277 670 CURVE",
"277 700 LINE",
"40 700 LINE",
"40 670 LINE",
"101 655 OFFCURVE",
"114 644 OFFCURVE",
"116 613 CURVE",
"122 514 OFFCURVE",
"119 181 OFFCURVE",
"114 85 CURVE",
"112 50 OFFCURVE",
"93 42 OFFCURVE",
"44 30 CURVE"
);
},
{
closed = 1;
nodes = (
"409 0 LINE",
"661 0 LINE",
"661 30 LINE",
"615 51 OFFCURVE",
"594 71 OFFCURVE",
"575 90 CURVE",
"270 395 LINE",
"193 347 LINE",
"447 95 LINE SMOOTH",
"482 60 OFFCURVE",
"458 42 OFFCURVE",
"409 30 CURVE"
);
},
{
closed = 1;
nodes = (
"414 700 LINE",
"414 670 LINE",
"489 656 OFFCURVE",
"489 629 OFFCURVE",
"439 582 CURVE",
"188 348 LINE",
"215 320 LINE",
"559 620 LINE SMOOTH",
"586 644 OFFCURVE",
"599 659 OFFCURVE",
"645 670 CURVE",
"645 700 LINE"
);
}
);
userData = {
com.schriftgestaltung.Glyphs.lastChange = "2019-03-12 17:26:32 +0000";
};
width = 685;
}
);
unicode = 004B;
},
{
color = 3;
glyphname = L;
layers = (
{
anchors = (
{
name = bottom;
position = "{361, 0}";
},
{
name = center;
position = "{361, 350}";
},
{
name = top;
position = "{361, 700}";
},
{
name = topright;
position = "{671, 700}";
}
);
layerId = "03FD986C-C76B-4420-A04C-E6CCB975BB31";
paths = (
{
closed = 1;
nodes = (
"40 673 LINE",
"109 661 OFFCURVE",
"133 650 OFFCURVE",
"134 631 CURVE",
"140 523 OFFCURVE",
"141 182 OFFCURVE",
"133 80 CURVE",
"131 54 OFFCURVE",
"98 28 OFFCURVE",
"52 17 CURVE",
"52 -13 LINE",
"155 2 OFFCURVE",
"458 8 OFFCURVE",
"661 1 CURVE",
"657 54 OFFCURVE",
"661 119 OFFCURVE",
"675 196 CURVE",
"645 197 LINE",
"631 140 OFFCURVE",
"608 83 OFFCURVE",
"528 76 CURVE",
"236 50 LINE",
"222 78 OFFCURVE",
"224 533 OFFCURVE",
"229 613 CURVE",
"231 644 OFFCURVE",
"244 655 OFFCURVE",
"337 670 CURVE",
"337 700 LINE",
"238 695 OFFCURVE",
"139 695 OFFCURVE",
"40 703 CURVE"
);
}
);
userData = {
com.schriftgestaltung.Glyphs.lastChange = "2019-03-19 06:58:40 +0000";
com.typemytype.robofont.mark = (
0.6,
1,
0.929,
1
);
};
width = 680;
}
);
leftMetricsKey = H;
unicode = 004C;
},
{
color = 3;
glyphname = M;
layers = (
{
anchors = (
{
name = bottom;
position = "{532, 0}";
},
{
name = top;
position = "{532, 700}";
}
);
layerId = "03FD986C-C76B-4420-A04C-E6CCB975BB31";
paths = (
{
closed = 1;
nodes = (
"40 0 LINE",
"312 0 LINE",
"312 30 LINE",
"189 39 OFFCURVE",
"195 50 OFFCURVE",
"193 95 CURVE",
"190 171 OFFCURVE",
"188 505 OFFCURVE",
"193 631 CURVE",
"218 631 LINE",
"304 487 OFFCURVE",
"463 178 OFFCURVE",
"499 39 CURVE",
"540 39 LINE",
"578 172 OFFCURVE",
"735 483 OFFCURVE",
"825 631 CURVE",
"850 631 LINE",
"853 487 OFFCURVE",
"850 155 OFFCURVE",
"846 85 CURVE",
"844 50 OFFCURVE",
"825 42 OFFCURVE",
"728 30 CURVE",
"728 0 LINE",
"1012 0 LINE",
"1012 30 LINE",
"966 41 OFFCURVE",
"948 54 OFFCURVE",
"946 80 CURVE",
"938 182 OFFCURVE",
"938 523 OFFCURVE",
"943 611 CURVE",
"945 650 OFFCURVE",
"956 655 OFFCURVE",
"998 670 CURVE",
"998 700 LINE",
"997 700 LINE",
"997 701 LINE",
"659 701 LINE",
"659 671 LINE",
"758 650 OFFCURVE",
"765 628 OFFCURVE",
"746 589 CURVE",
"535 163 LINE",
"563 151 LINE",
"342 602 LINE SMOOTH",
"333 621 OFFCURVE",
"323 659 OFFCURVE",
"420 670 CURVE",
"420 700 LINE",
"55 701 LINE",
"55 671 LINE",
"92 663 OFFCURVE",
"138 660 OFFCURVE",
"140 631 CURVE",
"147 523 OFFCURVE",
"142 182 OFFCURVE",
"137 90 CURVE",
"135 54 OFFCURVE",
"123 45 OFFCURVE",
"40 30 CURVE"
);
}
);
userData = {
com.schriftgestaltung.Glyphs.lastChange = "2019-03-19 06:05:57 +0000";
com.typemytype.robofont.mark = (
0.6,
1,
0.929,
1
);
};
width = 1052;
}
);
leftMetricsKey = H;
rightMetricsKey = H;
unicode = 004D;
},
{
color = 3;
glyphname = N;
layers = (
{
anchors = (
{
name = bottom;
position = "{401, 0}";
},
{
name = top;
position = "{401, 700}";
}
);
layerId = "03FD986C-C76B-4420-A04C-E6CCB975BB31";
paths = (
{
closed = 1;
nodes = (
"667 53 LINE",
"611 143 OFFCURVE",
"286 653 OFFCURVE",
"261 700 CURVE",
"42 701 LINE",
"42 671 LINE",
"67 666 OFFCURVE",
"105 660 OFFCURVE",
"107 631 CURVE",
"114 523 OFFCURVE",
"115 175 OFFCURVE",
"107 83 CURVE",
"104 47 OFFCURVE",
"93 46 OFFCURVE",
"40 23 CURVE",
"40 -7 LINE",
"113 1 OFFCURVE",
"186 1 OFFCURVE",
"259 -7 CURVE",
"259 23 LINE",
"156 40 OFFCURVE",
"163 43 OFFCURVE",
"161 88 CURVE",
"158 164 OFFCURVE",
"155 512 OFFCURVE",
"159 641 CURVE",
"181 641 LINE",
"262 532 OFFCURVE",
"519 119 OFFCURVE",
"581 0 CURVE",
"799 0 LINE",
"799 30 LINE",
"763 38 OFFCURVE",
"746 41 OFFCURVE",
"743 80 CURVE",
"737 178 OFFCURVE",
"732 519 OFFCURVE",
"740 611 CURVE",
"743 647 OFFCURVE",
"754 659 OFFCURVE",
"807 674 CURVE",
"807 700 LINE",
"737 697 OFFCURVE",
"668 699 OFFCURVE",
"598 704 CURVE",
"598 674 LINE",
"691 665 OFFCURVE",
"683 654 OFFCURVE",
"686 609 CURVE",
"691 533 OFFCURVE",
"693 184 OFFCURVE",
"689 52 CURVE"
);
}
);
userData = {
com.schriftgestaltung.Glyphs.lastChange = "2019-03-19 06:27:56 +0000";
com.typemytype.robofont.mark = (
0.6,
1,
0.929,
1
);
};
width = 847;
}
);
leftMetricsKey = H;
rightMetricsKey = H;
unicode = 004E;
},
{
color = 3;
glyphname = O;
layers = (
{
anchors = (
{
name = bottom;
position = "{426, 0}";
},
{
name = center;
position = "{426, 350}";
},
{
name = ogonek;
position = "{750, 10}";
},
{
name = top;
position = "{426, 700}";
},
{
name = topleft;
position = "{40, 700}";
},
{
name = topright;
position = "{812, 700}";
}
);
layerId = "03FD986C-C76B-4420-A04C-E6CCB975BB31";
paths = (
{
closed = 1;
nodes = (
"613 -12 OFFCURVE",
"749 155 OFFCURVE",
"749 351 CURVE",
"749 546 OFFCURVE",
"619 711 OFFCURVE",
"396 711 CURVE",
"178 711 OFFCURVE",
"40 544 OFFCURVE",
"40 351 CURVE",
"40 155 OFFCURVE",
"168 -12 OFFCURVE",
"396 -12 CURVE"
);
},
{
closed = 1;
nodes = (
"244 29 OFFCURVE",
"138 180 OFFCURVE",
"138 371 CURVE",
"138 536 OFFCURVE",
"215 673 OFFCURVE",
"374 673 CURVE",
"548 673 OFFCURVE",
"654 522 OFFCURVE",
"654 331 CURVE",
"654 166 OFFCURVE",
"586 29 OFFCURVE",
"418 29 CURVE"
);
}
);
userData = {
com.schriftgestaltung.Glyphs.lastChange = "2019-03-19 06:01:53 +0000";
com.typemytype.robofont.mark = (
0.6,
1,
0.929,
1
);
};
width = 789;
}
);
unicode = 004F;
},
{
color = 3;
glyphname = P;
layers = (
{
anchors = (
{
name = bottom;
position = "{365, 0}";
},
{
name = top;
position = "{365, 700}";
}
);
layerId = "03FD986C-C76B-4420-A04C-E6CCB975BB31";
paths = (
{
closed = 1;
nodes = (
"224 430 OFFCURVE",
"234 228 OFFCURVE",
"234 65 CURVE",
"234 34 OFFCURVE",
"259 35 OFFCURVE",
"357 22 CURVE",
"358 -8 LINE",
"229 0 OFFCURVE",
"168 0 OFFCURVE",
"83 -8 CURVE",
"83 22 LINE",
"128 30 OFFCURVE",
"140 35 OFFCURVE",
"141 66 CURVE",
"145 223 OFFCURVE",
"151 430 OFFCURVE",
"142 583 CURVE",
"139 636 OFFCURVE",
"113 658 OFFCURVE",
"40 679 CURVE",
"46 708 LINE",
"147 695 OFFCURVE",
"229 706 OFFCURVE",
"345 706 CURVE",
"463 706 OFFCURVE",
"645 660 OFFCURVE",
"645 500 CURVE",
"645 299 OFFCURVE",
"447 254 OFFCURVE",
"218 264 CURVE",
"218 296 LINE",
"398 286 OFFCURVE",
"544 338 OFFCURVE",
"544 492 CURVE",
"544 624 OFFCURVE",
"412 693 OFFCURVE",
"238 662 CURVE"
);
}
);
userData = {
com.schriftgestaltung.Glyphs.lastChange = "2019-03-19 06:59:24 +0000";
com.typemytype.robofont.mark = (
0.6,
1,
0.929,
1
);
};
width = 685;
}
);
leftMetricsKey = H;
rightMetricsKey = O;
unicode = 0050;
},
{
color = 3;
glyphname = Q;
layers = (
{
anchors = (
{
name = bottom;
position = "{301, 0}";
},
{
name = top;
position = "{301, 700}";
}
);
components = (
{
name = O;
}
);
layerId = "03FD986C-C76B-4420-A04C-E6CCB975BB31";
paths = (
{
closed = 1;
nodes = (
"434 9 LINE",
"533 -117 OFFCURVE",
"694 -182 OFFCURVE",
"852 -181 CURVE",
"946 -181 OFFCURVE",
"1084 -133 OFFCURVE",
"1142 -108 CURVE",
"1135 -89 LINE",
"1055 -112 OFFCURVE",
"971 -127 OFFCURVE",
"887 -127 CURVE",
"741 -127 OFFCURVE",
"624 -72 OFFCURVE",
"559 63 CURVE"
);
}
);
userData = {
com.schriftgestaltung.Glyphs.lastChange = "2018-12-20 10:12:09 +0000";
};
width = 762;
}
);
leftMetricsKey = O;
unicode = 0051;
},
{
color = 3;
glyphname = Q_P;
layers = (
{
anchors = (
{
name = bottom_1;
position = "{320, 0}";
},
{
name = bottom_2;
position = "{957, 0}";
},
{
name = caret_1;
position = "{638, 0}";
},
{
name = top_1;
position = "{320, 400}";
},
{
name = top_2;
position = "{957, 400}";
}
);
components = (
{
name = O;
}
);
layerId = "03FD986C-C76B-4420-A04C-E6CCB975BB31";
paths = (
{
closed = 1;
nodes = (
"434 9 LINE",
"533 -117 OFFCURVE",
"694 -182 OFFCURVE",
"852 -181 CURVE",
"946 -181 OFFCURVE",
"1084 -133 OFFCURVE",
"1142 -108 CURVE",
"1135 -89 LINE",
"1055 -112 OFFCURVE",
"971 -127 OFFCURVE",
"887 -127 CURVE",
"741 -127 OFFCURVE",
"624 -72 OFFCURVE",
"559 63 CURVE"
);
},
{
closed = 1;
nodes = (
"691 380 LINE",
"758 438 OFFCURVE",
"813 514 OFFCURVE",
"904 514 CURVE",
"977 514 OFFCURVE",
"1013 464 OFFCURVE",
"1013 410 CURVE",
"1013 254 OFFCURVE",
"828 52 OFFCURVE",
"658 -81 CURVE",
"703 -97 LINE",
"930 100 OFFCURVE",
"1097 269 OFFCURVE",
"1097 424 CURVE",
"1097 530 OFFCURVE",
"1031 591 OFFCURVE",
"958 591 CURVE",
"870 591 OFFCURVE",
"741 484 OFFCURVE",
"681 421 CURVE"
);
}
);
userData = {
com.schriftgestaltung.Glyphs.lastChange = "2019-03-19 06:32:47 +0000";
};
width = 1092;
}
);
leftMetricsKey = Q;
},
{
color = 3;
glyphname = Q_u;
layers = (
{
anchors = (
{
name = bottom_1;
position = "{320, 0}";
},
{
name = bottom_2;
position = "{957, 0}";
},
{
name = caret_1;
position = "{638, 0}";
},
{
name = top_1;
position = "{320, 400}";
},
{
name = top_2;
position = "{957, 400}";
}
);
components = (
{
name = O;
},
{
name = u;
transform = "{1, 0, 0, 1, 799, 0}";
}
);
layerId = "03FD986C-C76B-4420-A04C-E6CCB975BB31";
paths = (
{
closed = 1;
nodes = (
"434 9 LINE",
"533 -117 OFFCURVE",
"734 -181 OFFCURVE",
"902 -181 CURVE",
"1026 -181 OFFCURVE",
"1173 -144 OFFCURVE",
"1251 -98 CURVE",
"1244 -79 LINE",
"1144 -116 OFFCURVE",
"1051 -127 OFFCURVE",
"947 -127 CURVE",
"801 -127 OFFCURVE",
"624 -72 OFFCURVE",
"559 63 CURVE"
);
}
);
userData = {
com.schriftgestaltung.Glyphs.lastChange = "2019-04-19 17:46:08 +0000";
com.typemytype.robofont.mark = (
0.6,
1,
0.929,
1
);
};
width = 1334;
}
);
leftMetricsKey = O;
rightMetricsKey = u;
},
{
color = 3;
glyphname = R;
layers = (
{
anchors = (
{
name = bottom;
position = "{347, 0}";
},
{
name = top;
position = "{347, 700}";
}
);
layerId = "03FD986C-C76B-4420-A04C-E6CCB975BB31";
paths = (
{
closed = 1;
nodes = (
"86 648 LINE",
"123 648 OFFCURVE",
"171 647 OFFCURVE",
"232 647 CURVE",
"281 677 OFFCURVE",
"329 709 OFFCURVE",
"421 709 CURVE",
"509 709 OFFCURVE",
"623 654 OFFCURVE",
"623 527 CURVE",
"623 394 OFFCURVE",
"489 335 OFFCURVE",
"426 342 CURVE",
"490 261 OFFCURVE",
"551 170 OFFCURVE",
"620 70 CURVE",
"633 51 OFFCURVE",
"642 42 OFFCURVE",
"668 29 CURVE",
"668 0 LINE",
"602 4 OFFCURVE",
"537 4 OFFCURVE",
"471 0 CURVE",
"471 30 LINE",
"536 38 OFFCURVE",
"527 52 OFFCURVE",
"512 77 CURVE",
"436 203 OFFCURVE",
"347 312 OFFCURVE",
"244 420 CURVE",
"199 98 LINE SMOOTH",
"190 34 OFFCURVE",
"209 37 OFFCURVE",
"266 23 CURVE",
"266 -4 LINE",
"187 3 OFFCURVE",
"109 2 OFFCURVE",
"30 -5 CURVE",
"30 24 LINE",
"101 33 OFFCURVE",
"106 51 OFFCURVE",
"113 94 CURVE",
"189 570 LINE SMOOTH",
"194 601 OFFCURVE",
"191 602 OFFCURVE",
"81 615 CURVE"
);
},
{
closed = 1;
nodes = (
"349 645 OFFCURVE",
"288 600 OFFCURVE",
"288 511 CURVE",
"288 444 OFFCURVE",
"347 380 OFFCURVE",
"415 380 CURVE",
"497 380 OFFCURVE",
"554 425 OFFCURVE",
"554 518 CURVE",
"554 591 OFFCURVE",
"497 645 OFFCURVE",
"423 645 CURVE"
);
}
);
userData = {
com.schriftgestaltung.Glyphs.lastChange = "2019-03-19 06:30:57 +0000";
com.typemytype.robofont.mark = (
0.6,
1,
0.929,
1
);
};
width = 678;
}
);
unicode = 0052;
},
{
color = 3;
glyphname = S;
layers = (
{
anchors = (
{
name = bottom;
position = "{290, 0}";
},
{
name = top;
position = "{290, 700}";
}
);
layerId = "03FD986C-C76B-4420-A04C-E6CCB975BB31";
paths = (
{
closed = 1;
nodes = (
"542 707 LINE",
"543 707 OFFCURVE",
"469 713 OFFCURVE",
"360 713 CURVE",
"147 713 OFFCURVE",
"49 653 OFFCURVE",
"49 527 CURVE",
"49 436 OFFCURVE",
"110 398 OFFCURVE",
"250 336 CURVE",
"349 292 OFFCURVE",
"475 256 OFFCURVE",
"475 159 CURVE",
"475 73 OFFCURVE",
"395 31 OFFCURVE",
"277 31 CURVE",
"157 31 OFFCURVE",
"73 89 OFFCURVE",
"58 156 CURVE",
"30 157 LINE",
"48 0 LINE",
"88 0 OFFCURVE",
"153 -9 OFFCURVE",
"256 -9 CURVE",
"430 -9 OFFCURVE",
"562 33 OFFCURVE",
"562 185 CURVE",
"562 300 OFFCURVE",
"461 349 OFFCURVE",
"325 404 CURVE",
"198 455 OFFCURVE",
"151 482 OFFCURVE",
"151 548 CURVE",
"151 629 OFFCURVE",
"227 677 OFFCURVE",
"320 677 CURVE",
"446 677 OFFCURVE",
"496 634 OFFCURVE",
"525 512 CURVE",
"552 512 LINE"
);
}
);
userData = {
com.schriftgestaltung.Glyphs.lastChange = "2019-03-19 06:14:08 +0000";
com.typemytype.robofont.mark = (
0.6,
1,
0.929,
1
);
};
width = 592;
}
);
unicode = 0053;
},
{
color = 3;
glyphname = T;
layers = (
{
anchors = (
{
name = bottom;
position = "{387, 0}";
},
{
name = center;
position = "{387, 350}";
},
{
name = top;
position = "{387, 700}";
}
);
layerId = "03FD986C-C76B-4420-A04C-E6CCB975BB31";
paths = (
{
closed = 1;
nodes = (
"144 605 OFFCURVE",
"87 623 OFFCURVE",
"58 491 CURVE",
"28 491 LINE",
"39 552 OFFCURVE",
"38 652 OFFCURVE",
"25 731 CURVE",
"55 731 LINE",
"119 649 OFFCURVE",
"89 663 OFFCURVE",
"381 663 CURVE",
"654 663 OFFCURVE",
"674 649 OFFCURVE",
"719 732 CURVE",
"749 732 LINE",
"735 654 OFFCURVE",
"735 553 OFFCURVE",
"749 491 CURVE",
"719 491 LINE",
"681 627 OFFCURVE",
"623 605 OFFCURVE",
"381 605 CURVE"
);
},
{
closed = 1;
nodes = (
"352 633 LINE",
"429 633 LINE",
"436 157 LINE SMOOTH",
"437 56 OFFCURVE",
"437 56 OFFCURVE",
"541 26 CURVE",
"541 -4 LINE",
"417 6 OFFCURVE",
"355 5 OFFCURVE",
"227 -4 CURVE",
"227 26 LINE",
"335 56 OFFCURVE",
"335 56 OFFCURVE",
"338 157 CURVE"
);
}
);
userData = {
com.schriftgestaltung.Glyphs.lastChange = "2019-04-24 16:49:01 +0000";
com.typemytype.robofont.mark = (
0.6,
1,
0.929,
1
);
};
width = 774;
}
);
unicode = 0054;
},
{
color = 6;
glyphname = U;
layers = (
{
layerId = "03FD986C-C76B-4420-A04C-E6CCB975BB31";
paths = (
{
closed = 1;
nodes = (
"570 26 OFFCURVE",
"655 111 OFFCURVE",
"655 280 CURVE",
"656 584 LINE SMOOTH",
"656 662 OFFCURVE",
"632 655 OFFCURVE",
"545 665 CURVE",
"545 699 LINE",
"789 699 LINE",
"789 665 LINE",
"734 654 OFFCURVE",
"715 651 OFFCURVE",
"715 612 CURVE",
"707 279 LINE SMOOTH",
"703 92 OFFCURVE",
"597 -11 OFFCURVE",
"416 -11 CURVE",
"189 -11 OFFCURVE",
"104 102 OFFCURVE",
"103 299 CURVE",
"101 592 LINE SMOOTH",
"101 653 OFFCURVE",
"111 659 OFFCURVE",
"40 670 CURVE",
"40 699 LINE",
"272 699 LINE",
"272 670 LINE",
"211 661 OFFCURVE",
"192 656 OFFCURVE",
"192 607 CURVE",
"192 250 LINE SMOOTH",
"192 103 OFFCURVE",
"268 26 OFFCURVE",
"418 26 CURVE"
);
}
);
userData = {
com.schriftgestaltung.Glyphs.lastChange = "2019-03-12 17:26:32 +0000";
};
width = 829;
}
);
leftMetricsKey = I;
rightMetricsKey = I;
unicode = 0055;
},
{
color = 3;
glyphname = V;
layers = (
{
anchors = (
{
name = bottom;
position = "{361, 0}";
},
{
name = top;
position = "{361, 700}";
}
);
layerId = "03FD986C-C76B-4420-A04C-E6CCB975BB31";
paths = (
{
closed = 1;
nodes = (
"526 703 LINE",
"585 699 OFFCURVE",
"654 699 OFFCURVE",
"739 703 CURVE",
"739 673 LINE",
"670 596 OFFCURVE",
"398 66 OFFCURVE",
"377 0 CURVE",
"332 0 LINE",
"300 122 OFFCURVE",
"50 638 OFFCURVE",
"5 672 CURVE",
"5 702 LINE",
"87 699 OFFCURVE",
"169 699 OFFCURVE",
"251 702 CURVE",
"251 672 LINE",
"173 646 OFFCURVE",
"132 652 OFFCURVE",
"165 583 CURVE",
"383 123 LINE",
"616 593 LINE SMOOTH",
"638 638 OFFCURVE",
"608 649 OFFCURVE",
"526 673 CURVE"
);
}
);
userData = {
com.schriftgestaltung.Glyphs.lastChange = "2019-04-24 16:49:01 +0000";
com.typemytype.robofont.mark = (
0.6,
1,
0.929,
1
);
};
width = 744;
}
);
unicode = 0056;
},
{
color = 6;
glyphname = W;
layers = (
{
layerId = "03FD986C-C76B-4420-A04C-E6CCB975BB31";
paths = (
{
closed = 1;
nodes = (
"546 700 LINE",
"759 703 LINE",
"759 673 LINE",
"690 596 OFFCURVE",
"428 66 OFFCURVE",
"407 0 CURVE",
"362 0 LINE",
"330 122 OFFCURVE",
"50 638 OFFCURVE",
"5 672 CURVE",
"5 702 LINE",
"87 699 OFFCURVE",
"169 699 OFFCURVE",
"251 702 CURVE",
"251 672 LINE",
"173 646 OFFCURVE",
"129 650 OFFCURVE",
"165 583 CURVE",
"413 123 LINE",
"636 593 LINE SMOOTH",
"665 654 OFFCURVE",
"628 669 OFFCURVE",
"546 673 CURVE"
);
},
{
closed = 1;
nodes = (
"837 703 LINE",
"896 699 OFFCURVE",
"965 699 OFFCURVE",
"1050 703 CURVE",
"1050 673 LINE",
"981 596 OFFCURVE",
"719 66 OFFCURVE",
"698 0 CURVE",
"653 0 LINE",
"621 122 OFFCURVE",
"372 638 OFFCURVE",
"327 672 CURVE",
"327 702 LINE",
"573 700 LINE",
"573 672 LINE",
"495 666 OFFCURVE",
"450 661 OFFCURVE",
"487 583 CURVE",
"704 123 LINE",
"927 593 LINE SMOOTH",
"948 637 OFFCURVE",
"919 649 OFFCURVE",
"837 673 CURVE"
);
}
);
userData = {
com.schriftgestaltung.Glyphs.lastChange = "2019-04-24 16:49:08 +0000";
};
width = 1055;
}
);
unicode = 0057;
},
{
color = 3;
glyphname = X;
layers = (
{
anchors = (
{
name = bottom;
position = "{348, 0}";
},
{
name = top;
position = "{348, 700}";
}
);
layerId = "03FD986C-C76B-4420-A04C-E6CCB975BB31";
paths = (
{
closed = 1;
nodes = (
"691 30 LINE",
"640 46 OFFCURVE",
"354 400 OFFCURVE",
"194 601 CURVE",
"142 666 OFFCURVE",
"173 659 OFFCURVE",
"270 670 CURVE",
"270 700 LINE",
"270 700 OFFCURVE",
"5 700 OFFCURVE",
"5 700 CURVE",
"5 670 LINE",
"65 643 OFFCURVE",
"341 281 OFFCURVE",
"513 86 CURVE",
"548 47 OFFCURVE",
"536 36 OFFCURVE",
"431 30 CURVE",
"431 0 LINE",
"430 1 OFFCURVE",
"690 0 OFFCURVE",
"691 0 CURVE"
);
},
{
closed = 1;
nodes = (
"348 318 LINE",
"306 336 LINE",
"9 30 LINE",
"9 0 LINE",
"240 0 LINE",
"240 30 LINE",
"145 41 OFFCURVE",
"95 45 OFFCURVE",
"127 80 CURVE"
);
},
{
closed = 1;
nodes = (
"333 361 LINE",
"377 345 LINE",
"687 670 LINE",
"687 700 LINE",
"478 700 LINE",
"478 670 LINE",
"552 668 OFFCURVE",
"602 647 OFFCURVE",
"566 608 CURVE"
);
}
);
userData = {
com.schriftgestaltung.Glyphs.lastChange = "2019-03-19 06:39:21 +0000";
com.typemytype.robofont.mark = (
0.6,
1,
0.929,
1
);
};
width = 696;
}
);
unicode = 0058;
},
{
color = 3;
glyphname = Y;
layers = (
{
anchors = (
{
name = bottom;
position = "{288, 0}";
},
{
name = top;
position = "{288, 700}";
},
{
name = topleft;
position = "{50, 700}";
}
);
layerId = "03FD986C-C76B-4420-A04C-E6CCB975BB31";
paths = (
{
closed = 1;
nodes = (
"5 675 LINE",
"40 651 OFFCURVE",
"169 447 OFFCURVE",
"251 333 CURVE",
"251 120 LINE SMOOTH",
"251 37 OFFCURVE",
"245 39 OFFCURVE",
"170 24 CURVE",
"170 -4 LINE",
"261 2 OFFCURVE",
"331 3 OFFCURVE",
"422 -3 CURVE",
"423 24 LINE",
"340 41 OFFCURVE",
"336 51 OFFCURVE",
"336 118 CURVE",
"336 334 LINE",
"418 448 OFFCURVE",
"537 648 OFFCURVE",
"581 675 CURVE",
"581 700 LINE",
"378 700 LINE",
"378 674 LINE",
"465 660 OFFCURVE",
"483 629 OFFCURVE",
"448 574 CURVE",
"305 351 LINE",
"333 353 LINE",
"167 593 LINE SMOOTH",
"138 634 OFFCURVE",
"142 663 OFFCURVE",
"239 673 CURVE",
"239 700 LINE",
"5 700 LINE"
);
}
);
userData = {
com.schriftgestaltung.Glyphs.lastChange = "2019-03-19 06:39:04 +0000";
com.typemytype.robofont.mark = (
0.6,
1,
0.929,
1
);
};
width = 586;
}
);
unicode = 0059;
},
{
color = 3;
glyphname = Z;
layers = (
{
layerId = "03FD986C-C76B-4420-A04C-E6CCB975BB31";
paths = (
{
closed = 1;
nodes = (
"144 762 LINE",
"111 668 OFFCURVE",
"75 585 OFFCURVE",
"32 497 CURVE",
"72 490 LINE",
"160 611 OFFCURVE",
"155 620 OFFCURVE",
"282 621 CURVE",
"626 624 LINE",
"662 687 LINE",
"454 466 OFFCURVE",
"248 244 OFFCURVE",
"30 22 CURVE",
"38 0 LINE",
"653 1 LINE",
"654 -37 LINE",
"684 -38 LINE",
"694 33 OFFCURVE",
"734 115 OFFCURVE",
"740 137 CURVE",
"710 141 LINE",
"674 78 LINE",
"119 76 LINE",
"116 32 LINE",
"208 138 OFFCURVE",
"558 514 OFFCURVE",
"730 676 CURVE",
"735 700 LINE",
"171 700 LINE",
"177 759 LINE"
);
}
);
userData = {
com.schriftgestaltung.Glyphs.lastChange = "2019-04-01 18:32:52 +0000";
com.typemytype.robofont.mark = (
0.6,
1,
0.929,
1
);
};
width = 770;
}
);
unicode = 005A;
},
{
color = 4;
glyphname = a;
layers = (
{
anchors = (
{
name = bottom;
position = "{208, 0}";
},
{
name = ogonek;
position = "{362, 10}";
},
{
name = top;
position = "{208, 400}";
}
);
layerId = "03FD986C-C76B-4420-A04C-E6CCB975BB31";
paths = (
{
closed = 1;
nodes = (
"251 137 OFFCURVE",
"252 176 OFFCURVE",
"254 217 CURVE",
"182 186 OFFCURVE",
"103 169 OFFCURVE",
"103 114 CURVE",
"103 80 OFFCURVE",
"128 56 OFFCURVE",
"159 56 CURVE",
"188 56 OFFCURVE",
"242 79 OFFCURVE",
"252 99 CURVE",
"265 56 LINE",
"188 39 OFFCURVE",
"143 14 OFFCURVE",
"92 -10 CURVE",
"57 9 OFFCURVE",
"30 47 OFFCURVE",
"30 84 CURVE",
"30 114 OFFCURVE",
"38 128 OFFCURVE",
"52 145 CURVE",
"83 178 OFFCURVE",
"177 211 OFFCURVE",
"219 236 CURVE",
"244 251 OFFCURVE",
"252 271 OFFCURVE",
"252 296 CURVE",
"252 328 OFFCURVE",
"234 361 OFFCURVE",
"178 361 CURVE",
"152 361 OFFCURVE",
"119 350 OFFCURVE",
"90 313 CURVE",
"62 322 LINE",
"94 375 OFFCURVE",
"156 410 OFFCURVE",
"218 410 CURVE",
"309 410 OFFCURVE",
"337 352 OFFCURVE",
"335 285 CURVE",
"333 220 OFFCURVE",
"332 165 OFFCURVE",
"332 105 CURVE",
"332 44 OFFCURVE",
"366 55 OFFCURVE",
"390 63 CURVE",
"397 45 LINE",
"383 38 OFFCURVE",
"359 13 OFFCURVE",
"337 -10 CURVE",
"273 -7 OFFCURVE",
"251 18 OFFCURVE",
"251 80 CURVE"
);
}
);
userData = {
com.schriftgestaltung.Glyphs.lastChange = "2019-04-24 16:49:08 +0000";
com.typemytype.robofont.mark = (
0.6,
1,
0.929,
1
);
};
width = 402;
}
);
leftMetricsKey = n;
unicode = 0061;
},
{
color = 4;
glyphname = a_hook;
layers = (
{
anchors = (
{
name = _top;
position = "{173, 380}";
},
{
name = bottom;
position = "{300, 0}";
},
{
name = ogonek;
position = "{540, 10}";
},
{
name = top;
position = "{300, 400}";
}
);
components = (
{
name = a;
}
);
layerId = "03FD986C-C76B-4420-A04C-E6CCB975BB31";
paths = (
{
closed = 1;
nodes = (
"116 618 LINE",
"180 617 OFFCURVE",
"220 597 OFFCURVE",
"220 552 CURVE",
"220 523 OFFCURVE",
"200 483 OFFCURVE",
"160 462 CURVE",
"175 446 LINE",
"202 455 OFFCURVE",
"285 511 OFFCURVE",
"285 592 CURVE",
"285 645 OFFCURVE",
"258 672 OFFCURVE",
"197 688 CURVE",
"116 634 LINE"
);
}
);
userData = {
com.schriftgestaltung.Glyphs.ComponentInfo = (
{
alignment = -1;
index = 0;
name = a;
}
);
com.schriftgestaltung.Glyphs.lastChange = "2019-04-23 16:18:24 +0000";
};
width = 402;
}
);
leftMetricsKey = a;
rightMetricsKey = a;
unicode = 1EA3;
},
{
color = 4;
glyphname = a_macr;
layers = (
{
anchors = (
{
name = _top;
position = "{213, 380}";
},
{
name = bottom;
position = "{300, 0}";
},
{
name = ogonek;
position = "{540, 10}";
},
{
name = top;
position = "{300, 400}";
}
);
components = (
{
name = a;
}
);
layerId = "03FD986C-C76B-4420-A04C-E6CCB975BB31";
paths = (
{
closed = 1;
nodes = (
"64 499 LINE",
"146 595 LINE",
"254 584 OFFCURVE",
"282 611 OFFCURVE",
"345 675 CURVE",
"365 658 LINE",
"334 641 OFFCURVE",
"298 567 OFFCURVE",
"277 522 CURVE",
"176 528 OFFCURVE",
"156 540 OFFCURVE",
"77 486 CURVE"
);
}
);
userData = {
com.schriftgestaltung.Glyphs.ComponentInfo = (
{
alignment = -1;
index = 0;
name = a;
}
);
com.schriftgestaltung.Glyphs.lastChange = "2019-04-23 16:18:22 +0000";
};
width = 402;
}
);
leftMetricsKey = a;
rightMetricsKey = a;
unicode = 0101;
},
{
color = 4;
glyphname = a_e;
layers = (
{
layerId = "03FD986C-C76B-4420-A04C-E6CCB975BB31";
paths = (
{
closed = 1;
nodes = (
"102 68 OFFCURVE",
"121 53 OFFCURVE",
"148 53 CURVE",
"186 53 OFFCURVE",
"237 78 OFFCURVE",
"249 97 CURVE",
"247 145 OFFCURVE",
"247 170 OFFCURVE",
"246 207 CURVE",
"184 176 OFFCURVE",
"105 149 OFFCURVE",
"103 94 CURVE"
);
},
{
closed = 1;
nodes = (
"313 209 LINE",
"360 223 OFFCURVE",
"405 235 OFFCURVE",
"458 261 CURVE",
"461 301 OFFCURVE",
"426 354 OFFCURVE",
"389 354 CURVE",
"373 354 OFFCURVE",
"343 344 OFFCURVE",
"322 326 CURVE",
"318 280 OFFCURVE",
"320 233 OFFCURVE",
"320 187 CURVE",
"320 104 OFFCURVE",
"332 50 OFFCURVE",
"429 50 CURVE",
"468 50 OFFCURVE",
"518 73 OFFCURVE",
"538 82 CURVE",
"546 59 LINE",
"503 33 OFFCURVE",
"431 -2 OFFCURVE",
"386 -10 CURVE",
"311 9 OFFCURVE",
"299 28 OFFCURVE",
"260 53 CURVE",
"190 36 OFFCURVE",
"149 13 OFFCURVE",
"101 -10 CURVE",
"66 -1 OFFCURVE",
"30 27 OFFCURVE",
"30 64 CURVE",
"30 94 OFFCURVE",
"38 108 OFFCURVE",
"52 125 CURVE",
"83 158 OFFCURVE",
"167 202 OFFCURVE",
"209 226 CURVE",
"234 240 OFFCURVE",
"242 271 OFFCURVE",
"242 296 CURVE",
"242 328 OFFCURVE",
"224 361 OFFCURVE",
"168 361 CURVE",
"142 361 OFFCURVE",
"109 350 OFFCURVE",
"80 313 CURVE",
"52 322 LINE",
"84 375 OFFCURVE",
"146 410 OFFCURVE",
"208 410 CURVE",
"264 410 OFFCURVE",
"297 388 OFFCURVE",
"313 355 CURVE",
"331 368 OFFCURVE",
"390 402 OFFCURVE",
"435 410 CURVE",
"516 385 OFFCURVE",
"546 329 OFFCURVE",
"543 256 CURVE",
"541 253 LINE",
"465 229 OFFCURVE",
"368 200 OFFCURVE",
"314 174 CURVE"
);
}
);
userData = {
com.schriftgestaltung.Glyphs.lastChange = "2019-04-23 16:21:24 +0000";
};
width = 551;
}
);
leftMetricsKey = a;
rightMetricsKey = e;
},
{
color = 4;
glyphname = b;
layers = (
{
anchors = (
{
name = bottom;
position = "{234, 0}";
},
{
name = top;
position = "{234, 700}";
}
);
layerId = "03FD986C-C76B-4420-A04C-E6CCB975BB31";
paths = (
{
closed = 1;
nodes = (
"143 165 OFFCURVE",
"143 231 OFFCURVE",
"143 320 CURVE",
"143 434 OFFCURVE",
"138 588 OFFCURVE",
"153 701 CURVE",
"142 711 LINE",
"112 704 OFFCURVE",
"55 686 OFFCURVE",
"15 672 CURVE",
"15 661 LINE",
"64 625 OFFCURVE",
"69 502 OFFCURVE",
"69 379 CURVE",
"69 249 OFFCURVE",
"66 183 OFFCURVE",
"54 3 CURVE",
"103 5 OFFCURVE",
"153 -5 OFFCURVE",
"210 -5 CURVE",
"335 -5 OFFCURVE",
"438 103 OFFCURVE",
"438 218 CURVE",
"438 315 OFFCURVE",
"382 384 OFFCURVE",
"304 410 CURVE",
"281 410 OFFCURVE",
"172 364 OFFCURVE",
"138 343 CURVE",
"140 300 LINE",
"150 316 OFFCURVE",
"200 334 OFFCURVE",
"245 334 CURVE",
"330 334 OFFCURVE",
"385 271 OFFCURVE",
"385 187 CURVE",
"385 127 OFFCURVE",
"360 83 OFFCURVE",
"308 57 CURVE",
"237 44 OFFCURVE",
"184 60 OFFCURVE",
"148 76 CURVE"
);
}
);
userData = {
com.schriftgestaltung.Glyphs.lastChange = "2019-04-24 16:49:08 +0000";
com.typemytype.robofont.mark = (
0.6,
1,
0.929,
1
);
};
width = 463;
}
);
rightMetricsKey = o;
unicode = 0062;
},
{
color = 4;
glyphname = b_hook;
layers = (
{
anchors = (
{
name = bottom;
position = "{300, 0}";
},
{
name = top;
position = "{300, 700}";
}
);
components = (
{
name = b;
}
);
layerId = "03FD986C-C76B-4420-A04C-E6CCB975BB31";
paths = (
{
closed = 1;
nodes = (
"133 588 LINE",
"161 612 OFFCURVE",
"190 635 OFFCURVE",
"221 635 CURVE",
"261 635 OFFCURVE",
"283 610 OFFCURVE",
"283 579 CURVE",
"283 513 OFFCURVE",
"190 434 OFFCURVE",
"109 411 CURVE",
"127 386 LINE",
"260 459 OFFCURVE",
"367 520 OFFCURVE",
"367 625 CURVE",
"367 666 OFFCURVE",
"329 707 OFFCURVE",
"294 725 CURVE",
"251 695 OFFCURVE",
"188 654 OFFCURVE",
"123 625 CURVE"
);
}
);
userData = {
com.schriftgestaltung.Glyphs.lastChange = "2019-04-23 16:18:20 +0000";
};
width = 463;
}
);
leftMetricsKey = b;
rightMetricsKey = b;
},
{
color = 4;
glyphname = c;
layers = (
{
anchors = (
{
name = bottom;
position = "{183, 0}";
},
{
name = top;
position = "{183, 400}";
}
);
layerId = "03FD986C-C76B-4420-A04C-E6CCB975BB31";
paths = (
{
closed = 1;
nodes = (
"327 309 LINE",
"284 326 OFFCURVE",
"201 346 OFFCURVE",
"161 346 CURVE",
"134 317 OFFCURVE",
"110 271 OFFCURVE",
"110 198 CURVE",
"110 110 OFFCURVE",
"162 43 OFFCURVE",
"253 43 CURVE",
"285 43 OFFCURVE",
"320 51 OFFCURVE",
"338 56 CURVE",
"338 23 LINE",
"289 13 OFFCURVE",
"219 -3 OFFCURVE",
"158 -11 CURVE",
"76 19 OFFCURVE",
"25 88 OFFCURVE",
"25 182 CURVE",
"25 325 OFFCURVE",
"167 411 OFFCURVE",
"254 411 CURVE",
"288 411 OFFCURVE",
"315 400 OFFCURVE",
"354 400 CURVE",
"356 395 LINE"
);
}
);
userData = {
com.schriftgestaltung.Glyphs.lastChange = "2019-04-24 16:49:08 +0000";
com.typemytype.robofont.mark = (
0.6,
1,
0.929,
1
);
};
width = 366;
}
);
unicode = 0063;
},
{
color = 4;
glyphname = c_hook;
layers = (
{
components = (
{
name = c;
}
);
layerId = "03FD986C-C76B-4420-A04C-E6CCB975BB31";
paths = (
{
closed = 1;
nodes = (
"137 452 LINE",
"346 561 OFFCURVE",
"252 754 OFFCURVE",
"67 623 CURVE",
"67 596 LINE",
"159 647 OFFCURVE",
"209 526 OFFCURVE",
"116 472 CURVE"
);
}
);
userData = {
com.schriftgestaltung.Glyphs.lastChange = "2019-03-21 16:55:23 +0000";
};
width = 366;
}
);
},
{
color = 4;
glyphname = c_ra;
layers = (
{
components = (
{
name = c;
transform = "{1, 0, 0, 1, 19, 0}";
}
);
layerId = "03FD986C-C76B-4420-A04C-E6CCB975BB31";
paths = (
{
closed = 1;
nodes = (
"25 507 LINE",
"37 517 OFFCURVE",
"106 576 OFFCURVE",
"129 596 CURVE",
"155 581 OFFCURVE",
"186 564 OFFCURVE",
"211 550 CURVE",
"271 599 LINE",
"320 561 OFFCURVE",
"344 545 OFFCURVE",
"379 578 CURVE",
"401 565 LINE",
"374 535 OFFCURVE",
"347 505 OFFCURVE",
"313 474 CURVE",
"274 499 OFFCURVE",
"242 519 OFFCURVE",
"210 525 CURVE",
"178 510 OFFCURVE",
"149 486 OFFCURVE",
"135 476 CURVE",
"84 511 OFFCURVE",
"84 512 OFFCURVE",
"47 492 CURVE"
);
}
);
userData = {
com.schriftgestaltung.Glyphs.lastChange = "2019-04-23 17:34:50 +0000";
};
width = 411;
}
);
leftMetricsKey = c;
rightMetricsKey = c;
},
{
color = 4;
glyphname = c_t;
layers = (
{
anchors = (
{
name = bottom;
position = "{156, 0}";
},
{
name = bottom_1;
position = "{147, 0}";
},
{
name = bottom_2;
position = "{495, 0}";
},
{
name = caret_1;
position = "{321, 0}";
},
{
name = center;
position = "{593, 200}";
},
{
name = top;
position = "{156, 400}";
},
{
name = top_1;
position = "{147, 400}";
},
{
name = top_2;
position = "{495, 400}";
},
{
name = topright;
position = "{738, 400}";
}
);
layerId = "03FD986C-C76B-4420-A04C-E6CCB975BB31";
paths = (
{
closed = 1;
nodes = (
"25 315 OFFCURVE",
"160 411 OFFCURVE",
"227 411 CURVE",
"254 411 OFFCURVE",
"272 411 OFFCURVE",
"289 408 CURVE",
"295 506 OFFCURVE",
"343 634 OFFCURVE",
"452 634 CURVE",
"521 634 OFFCURVE",
"581 598 OFFCURVE",
"581 523 CURVE",
"581 501 OFFCURVE",
"575 408 OFFCURVE",
"574 379 CURVE",
"668 382 OFFCURVE",
"678 382 OFFCURVE",
"716 391 CURVE",
"723 386 LINE",
"719 306 LINE",
"666 313 OFFCURVE",
"621 316 OFFCURVE",
"569 315 CURVE",
"568 125 LINE SMOOTH",
"568 80 OFFCURVE",
"584 48 OFFCURVE",
"629 46 CURVE",
"649 45 OFFCURVE",
"682 47 OFFCURVE",
"718 65 CURVE",
"729 48 LINE",
"729 48 OFFCURVE",
"633 -10 OFFCURVE",
"608 -10 CURVE",
"502 -10 OFFCURVE",
"491 53 OFFCURVE",
"492 87 CURVE",
"496 278 LINE SMOOTH",
"497 323 OFFCURVE",
"492 323 OFFCURVE",
"443 332 CURVE",
"443 348 LINE",
"483 376 OFFCURVE",
"506 399 OFFCURVE",
"508 461 CURVE",
"510 532 OFFCURVE",
"479 555 OFFCURVE",
"428 555 CURVE",
"367 555 OFFCURVE",
"331 501 OFFCURVE",
"321 405 CURVE",
"312 319 LINE",
"269 336 OFFCURVE",
"194 346 OFFCURVE",
"154 346 CURVE",
"127 317 OFFCURVE",
"103 271 OFFCURVE",
"103 198 CURVE",
"103 110 OFFCURVE",
"163 54 OFFCURVE",
"224 54 CURVE",
"272 54 OFFCURVE",
"324 87 OFFCURVE",
"370 119 CURVE",
"386 96 LINE",
"330 54 OFFCURVE",
"255 7 OFFCURVE",
"194 -11 CURVE",
"113 0 OFFCURVE",
"25 58 OFFCURVE",
"25 172 CURVE"
);
}
);
userData = {
com.schriftgestaltung.Glyphs.lastChange = "2019-03-21 16:55:23 +0000";
};
width = 729;
}
);
leftMetricsKey = c;
rightMetricsKey = t;
unicode = EEC5;
},
{
color = 4;
glyphname = d;
layers = (
{
anchors = (
{
name = bottom;
position = "{263, 0}";
},
{
name = center;
position = "{263, 200}";
},
{
name = top;
position = "{263, 700}";
},
{
name = topright;
position = "{502, 400}";
}
);
layerId = "03FD986C-C76B-4420-A04C-E6CCB975BB31";
paths = (
{
closed = 1;
nodes = (
"347 392 LINE",
"305 401 OFFCURVE",
"248 411 OFFCURVE",
"210 411 CURVE",
"111 382 OFFCURVE",
"25 322 OFFCURVE",
"25 191 CURVE",
"25 99 OFFCURVE",
"59 6 OFFCURVE",
"190 -10 CURVE",
"230 29 OFFCURVE",
"281 69 OFFCURVE",
"341 90 CURVE",
"338 192 LINE",
"338 113 OFFCURVE",
"254 80 OFFCURVE",
"206 80 CURVE",
"117 80 OFFCURVE",
"68 138 OFFCURVE",
"68 209 CURVE",
"68 318 OFFCURVE",
"145 343 OFFCURVE",
"207 343 CURVE",
"265 343 OFFCURVE",
"318 318 OFFCURVE",
"338 276 CURVE"
);
},
{
closed = 1;
nodes = (
"339 99 LINE",
"369 -11 LINE",
"383 -14 LINE",
"429 20 OFFCURVE",
"472 48 OFFCURVE",
"512 66 CURVE",
"505 94 LINE",
"489 89 OFFCURVE",
"469 84 OFFCURVE",
"447 83 CURVE",
"422 82 OFFCURVE",
"412 166 OFFCURVE",
"412 227 CURVE",
"412 357 OFFCURVE",
"412 627 OFFCURVE",
"449 712 CURVE",
"437 721 LINE",
"390 682 OFFCURVE",
"367 674 OFFCURVE",
"274 679 CURVE",
"271 664 LINE",
"372 630 OFFCURVE",
"334 582 OFFCURVE",
"336 366 CURVE"
);
}
);
userData = {
com.schriftgestaltung.Glyphs.lastChange = "2019-04-24 16:49:08 +0000";
com.typemytype.robofont.mark = (
0.6,
1,
0.929,
1
);
};
width = 517;
}
);
leftMetricsKey = o;
unicode = 0064;
},
{
color = 4;
glyphname = d_strok;
layers = (
{
anchors = (
{
name = bottom;
position = "{300, 0}";
},
{
name = center;
position = "{300, 200}";
},
{
name = top;
position = "{300, 700}";
},
{
name = topright;
position = "{580, 400}";
}
);
components = (
{
name = d;
}
);
layerId = "03FD986C-C76B-4420-A04C-E6CCB975BB31";
paths = (
{
closed = 1;
nodes = (
"392 543 OFFCURVE",
"215 528 OFFCURVE",
"108 529 CURVE",
"100 501 LINE",
"199 504 OFFCURVE",
"317 509 OFFCURVE",
"446 510 CURVE",
"451 527 OFFCURVE",
"456 537 OFFCURVE",
"461 550 CURVE"
);
}
);
userData = {
com.schriftgestaltung.Glyphs.ComponentInfo = (
{
alignment = -1;
index = 0;
name = d;
}
);
com.schriftgestaltung.Glyphs.lastChange = "2019-04-23 16:18:12 +0000";
};
width = 517;
}
);
leftMetricsKey = d;
rightMetricsKey = d;
},
{
color = 4;
glyphname = e;
layers = (
{
anchors = (
{
name = bottom;
position = "{184, 0}";
},
{
name = ogonek;
position = "{331, 10}";
},
{
name = top;
position = "{192, 400}";
}
);
layerId = "03FD986C-C76B-4420-A04C-E6CCB975BB31";
paths = (
{
closed = 1;
nodes = (
"104 121 OFFCURVE",
"157 50 OFFCURVE",
"229 50 CURVE",
"268 50 OFFCURVE",
"306 63 OFFCURVE",
"326 72 CURVE",
"337 46 LINE",
"294 29 OFFCURVE",
"251 8 OFFCURVE",
"206 -10 CURVE",
"91 -10 OFFCURVE",
"25 83 OFFCURVE",
"25 197 CURVE",
"25 247 OFFCURVE",
"34 292 OFFCURVE",
"51 325 CURVE",
"85 356 OFFCURVE",
"161 399 OFFCURVE",
"225 411 CURVE",
"306 386 OFFCURVE",
"336 336 OFFCURVE",
"363 263 CURVE",
"361 260 LINE",
"285 236 OFFCURVE",
"159 199 OFFCURVE",
"101 174 CURVE",
"95 209 LINE",
"151 221 OFFCURVE",
"216 241 OFFCURVE",
"269 267 CURVE",
"252 306 OFFCURVE",
"206 360 OFFCURVE",
"179 360 CURVE",
"141 360 OFFCURVE",
"104 294 OFFCURVE",
"104 216 CURVE"
);
}
);
userData = {
com.schriftgestaltung.Glyphs.lastChange = "2019-04-24 16:49:08 +0000";
com.typemytype.robofont.mark = (
0.6,
1,
0.929,
1
);
};
width = 368;
}
);
unicode = 0065;
},
{
color = 4;
glyphname = e_hook;
layers = (
{
anchors = (
{
name = _top;
position = "{142, 380}";
},
{
name = bottom;
position = "{300, 0}";
},
{
name = ogonek;
position = "{540, 10}";
},
{
name = top;
position = "{300, 400}";
}
);
components = (
{
name = e;
}
);
layerId = "03FD986C-C76B-4420-A04C-E6CCB975BB31";
paths = (
{
closed = 1;
nodes = (
"85 618 LINE",
"149 617 OFFCURVE",
"189 597 OFFCURVE",
"189 552 CURVE",
"189 523 OFFCURVE",
"169 483 OFFCURVE",
"129 462 CURVE",
"144 446 LINE",
"171 455 OFFCURVE",
"254 511 OFFCURVE",
"254 592 CURVE",
"254 645 OFFCURVE",
"227 672 OFFCURVE",
"166 688 CURVE",
"85 634 LINE"
);
}
);
userData = {
com.schriftgestaltung.Glyphs.ComponentInfo = (
{
alignment = -1;
index = 0;
name = e;
}
);
com.schriftgestaltung.Glyphs.lastChange = "2019-04-23 16:18:09 +0000";
};
width = 368;
}
);
leftMetricsKey = e;
rightMetricsKey = e;
},
{
color = 4;
glyphname = e_macr;
layers = (
{
anchors = (
{
name = _top;
position = "{214, 350}";
},
{
name = bottom;
position = "{300, 0}";
},
{
name = ogonek;
position = "{540, 10}";
},
{
name = top;
position = "{300, 400}";
}
);
components = (
{
name = e;
}
);
layerId = "03FD986C-C76B-4420-A04C-E6CCB975BB31";
paths = (
{
closed = 1;
nodes = (
"40 472 LINE",
"139 589 LINE",
"269 600 OFFCURVE",
"304 608 OFFCURVE",
"360 665 CURVE",
"384 645 LINE",
"347 594 OFFCURVE",
"323 553 OFFCURVE",
"298 518 CURVE",
"176 506 OFFCURVE",
"151 522 OFFCURVE",
"56 457 CURVE"
);
}
);
userData = {
com.schriftgestaltung.Glyphs.ComponentInfo = (
{
alignment = -1;
index = 0;
name = e;
}
);
com.schriftgestaltung.Glyphs.lastChange = "2019-04-23 17:35:26 +0000";
};
width = 368;
}
);
unicode = 0113;
},
{
color = 4;
glyphname = f;
layers = (
{
anchors = (
{
name = bottom;
position = "{169, 0}";
},
{
name = top;
position = "{169, 700}";
}
);
layerId = "03FD986C-C76B-4420-A04C-E6CCB975BB31";
paths = (
{
closed = 1;
nodes = (
"119 388 LINE",
"220 346 LINE",
"21 328 LINE",
"21 351 LINE"
);
},
{
closed = 1;
nodes = (
"195 445 OFFCURVE",
"200 91 OFFCURVE",
"206 63 CURVE",
"211 40 OFFCURVE",
"219 40 OFFCURVE",
"300 18 CURVE",
"300 -7 LINE",
"199 5 OFFCURVE",
"114 1 OFFCURVE",
"35 -8 CURVE",
"35 17 LINE",
"103 33 OFFCURVE",
"116 43 OFFCURVE",
"119 68 CURVE",
"126 128 OFFCURVE",
"116 451 OFFCURVE",
"115 517 CURVE",
"114 633 OFFCURVE",
"176 711 OFFCURVE",
"294 711 CURVE",
"334 711 OFFCURVE",
"383 708 OFFCURVE",
"417 693 CURVE",
"405 667 OFFCURVE",
"390 637 OFFCURVE",
"379 613 CURVE",
"369 615 LINE",
"369 615 OFFCURVE",
"327 667 OFFCURVE",
"278 667 CURVE",
"236 667 OFFCURVE",
"195 636 OFFCURVE",
"195 548 CURVE"
);
},
{
closed = 1;
nodes = (
"189 342 LINE",
"189 398 LINE",
"355 398 LINE",
"355 386 LINE",
"315 342 LINE"
);
}
);
userData = {
com.schriftgestaltung.Glyphs.lastChange = "2019-04-24 16:49:08 +0000";
com.typemytype.robofont.mark = (
0.6,
1,
0.929,
1
);
};
width = 337;
}
);
unicode = 0066;
},
{
color = 4;
glyphname = f_f;
layers = (
{
anchors = (
{
name = caret_1;
position = "{389.5, 0}";
}
);
layerId = "03FD986C-C76B-4420-A04C-E6CCB975BB31";
paths = (
{
closed = 1;
nodes = (
"119 388 LINE",
"220 346 LINE",
"21 328 LINE",
"21 351 LINE"
);
},
{
closed = 1;
nodes = (
"195 425 OFFCURVE",
"200 91 OFFCURVE",
"206 63 CURVE",
"211 40 OFFCURVE",
"219 40 OFFCURVE",
"270 18 CURVE",
"270 -7 LINE",
"199 5 OFFCURVE",
"114 1 OFFCURVE",
"55 -8 CURVE",
"55 17 LINE",
"103 33 OFFCURVE",
"116 43 OFFCURVE",
"119 68 CURVE",
"126 128 OFFCURVE",
"115 431 OFFCURVE",
"115 487 CURVE",
"114 603 OFFCURVE",
"176 682 OFFCURVE",
"293 688 CURVE",
"334 690 OFFCURVE",
"427 671 OFFCURVE",
"461 656 CURVE",
"449 630 OFFCURVE",
"442 608 OFFCURVE",
"431 577 CURVE",
"413 568 LINE",
"382 624 OFFCURVE",
"327 641 OFFCURVE",
"286 641 CURVE",
"236 641 OFFCURVE",
"195 606 OFFCURVE",
"195 518 CURVE"
);
},
{
closed = 1;
nodes = (
"189 342 LINE",
"189 398 LINE",
"463 398 LINE",
"463 386 LINE",
"423 342 LINE"
);
},
{
closed = 1;
nodes = (
"482 445 OFFCURVE",
"487 91 OFFCURVE",
"493 63 CURVE",
"498 40 OFFCURVE",
"506 40 OFFCURVE",
"567 18 CURVE",
"567 -7 LINE",
"486 5 OFFCURVE",
"401 1 OFFCURVE",
"342 -8 CURVE",
"342 17 LINE",
"390 33 OFFCURVE",
"403 43 OFFCURVE",
"406 68 CURVE",
"413 128 OFFCURVE",
"403 451 OFFCURVE",
"402 517 CURVE",
"400 633 OFFCURVE",
"463 711 OFFCURVE",
"581 711 CURVE",
"621 711 OFFCURVE",
"670 708 OFFCURVE",
"704 693 CURVE",
"692 667 OFFCURVE",
"677 637 OFFCURVE",
"666 613 CURVE",
"656 615 LINE",
"656 615 OFFCURVE",
"614 667 OFFCURVE",
"565 667 CURVE",
"523 667 OFFCURVE",
"482 636 OFFCURVE",
"482 548 CURVE"
);
},
{
closed = 1;
nodes = (
"476 342 LINE",
"476 398 LINE",
"642 398 LINE",
"642 386 LINE",
"602 342 LINE"
);
}
);
userData = {
com.schriftgestaltung.Glyphs.lastChange = "2019-03-21 16:55:23 +0000";
com.typemytype.robofont.mark = (
0.6,
1,
0.929,
1
);
};
width = 624;
}
);
leftMetricsKey = f;
rightMetricsKey = f;
unicode = FB00;
},
{
color = 4;
glyphname = g;
layers = (
{
anchors = (
{
name = bottom;
position = "{235, -250}";
},
{
name = top;
position = "{235, 400}";
}
);
layerId = "03FD986C-C76B-4420-A04C-E6CCB975BB31";
paths = (
{
closed = 1;
nodes = (
"115 16 OFFCURVE",
"97 27 OFFCURVE",
"52 44 CURVE",
"52 92 LINE",
"101 87 OFFCURVE",
"122 89 OFFCURVE",
"174 109 CURVE",
"97 133 OFFCURVE",
"57 185 OFFCURVE",
"57 253 CURVE",
"57 333 OFFCURVE",
"117 410 OFFCURVE",
"232 410 CURVE",
"311 410 OFFCURVE",
"410 366 OFFCURVE",
"510 349 CURVE",
"498 301 LINE",
"381 329 LINE",
"400 313 OFFCURVE",
"411 269 OFFCURVE",
"411 248 CURVE",
"411 116 OFFCURVE",
"258 102 OFFCURVE",
"168 79 CURVE",
"214 73 OFFCURVE",
"274 67 OFFCURVE",
"340 53 CURVE",
"398 28 OFFCURVE",
"454 -26 OFFCURVE",
"454 -99 CURVE",
"454 -201 OFFCURVE",
"367 -259 OFFCURVE",
"249 -259 CURVE",
"131 -259 OFFCURVE",
"35 -214 OFFCURVE",
"35 -113 CURVE",
"65 -70 OFFCURVE",
"112 -27 OFFCURVE",
"173 22 CURVE",
"236 15 LINE",
"181 5 OFFCURVE",
"117 -41 OFFCURVE",
"117 -107 CURVE",
"117 -178 OFFCURVE",
"185 -220 OFFCURVE",
"277 -220 CURVE",
"343 -220 OFFCURVE",
"412 -190 OFFCURVE",
"411 -121 CURVE",
"410 -44 OFFCURVE",
"300 16 OFFCURVE",
"161 -10 CURVE"
);
},
{
closed = 1;
nodes = (
"182 348 OFFCURVE",
"135 310 OFFCURVE",
"136 247 CURVE",
"137 186 OFFCURVE",
"175 139 OFFCURVE",
"242 139 CURVE",
"299 139 OFFCURVE",
"341 179 OFFCURVE",
"340 244 CURVE",
"339 291 OFFCURVE",
"307 346 OFFCURVE",
"232 347 CURVE"
);
}
);
userData = {
com.schriftgestaltung.Glyphs.lastChange = "2019-04-24 16:49:08 +0000";
com.typemytype.robofont.mark = (
0.6,
1,
0.929,
1
);
};
width = 510;
}
);
unicode = 0067;
},
{
color = 4;
glyphname = g_ra;
layers = (
{
anchors = (
{
name = bottom;
position = "{300, -250}";
},
{
name = top;
position = "{300, 400}";
}
);
components = (
{
name = g;
}
);
layerId = "03FD986C-C76B-4420-A04C-E6CCB975BB31";
paths = (
{
closed = 1;
nodes = (
"61 534 LINE",
"74 544 OFFCURVE",
"145 602 OFFCURVE",
"169 622 CURVE",
"196 607 OFFCURVE",
"228 590 OFFCURVE",
"254 577 CURVE",
"316 625 LINE",
"366 588 OFFCURVE",
"391 572 OFFCURVE",
"427 604 CURVE",
"450 591 LINE",
"422 562 OFFCURVE",
"394 532 OFFCURVE",
"359 502 CURVE",
"319 526 OFFCURVE",
"286 546 OFFCURVE",
"253 552 CURVE",
"220 537 OFFCURVE",
"190 513 OFFCURVE",
"175 504 CURVE",
"122 538 OFFCURVE",
"122 539 OFFCURVE",
"84 519 CURVE"
);
}
);
userData = {
com.schriftgestaltung.Glyphs.ComponentInfo = (
{
alignment = -1;
index = 0;
name = g;
}
);
com.schriftgestaltung.Glyphs.lastChange = "2019-04-23 16:18:02 +0000";
};
width = 510;
}
);
leftMetricsKey = g;
rightMetricsKey = g;
},
{
color = 4;
glyphname = h;
layers = (
{
anchors = (
{
name = bottom;
position = "{261, 0}";
},
{
name = center;
position = "{261, 350}";
},
{
name = top;
position = "{261, 700}";
}
);
layerId = "03FD986C-C76B-4420-A04C-E6CCB975BB31";
paths = (
{
closed = 1;
nodes = (
"137 294 LINE",
"180 322 OFFCURVE",
"220 336 OFFCURVE",
"270 336 CURVE",
"364 336 OFFCURVE",
"429 274 OFFCURVE",
"429 188 CURVE",
"429 130 OFFCURVE",
"408 90 OFFCURVE",
"372 58 CURVE",
"351 58 OFFCURVE",
"337 61 OFFCURVE",
"308 66 CURVE",
"283 5 LINE",
"302 1 OFFCURVE",
"337 0 OFFCURVE",
"356 0 CURVE",
"378 0 OFFCURVE",
"477 114 OFFCURVE",
"477 218 CURVE",
"477 316 OFFCURVE",
"423 413 OFFCURVE",
"308 413 CURVE",
"282 413 OFFCURVE",
"159 342 OFFCURVE",
"137 337 CURVE"
);
},
{
closed = 1;
nodes = (
"160 91 OFFCURVE",
"160 442 OFFCURVE",
"160 497 CURVE",
"160 627 OFFCURVE",
"184 704 OFFCURVE",
"184 703 CURVE",
"169 710 LINE",
"111 641 OFFCURVE",
"43 606 OFFCURVE",
"10 595 CURVE",
"10 580 LINE",
"55 571 OFFCURVE",
"79 538 OFFCURVE",
"80 422 CURVE",
"81 326 OFFCURVE",
"86 128 OFFCURVE",
"79 68 CURVE",
"76 43 OFFCURVE",
"63 33 OFFCURVE",
"25 17 CURVE",
"25 -8 LINE",
"74 1 OFFCURVE",
"159 5 OFFCURVE",
"220 -7 CURVE",
"220 18 LINE",
"179 40 OFFCURVE",
"171 40 OFFCURVE",
"166 63 CURVE"
);
}
);
userData = {
com.schriftgestaltung.Glyphs.lastChange = "2019-04-24 16:49:08 +0000";
com.typemytype.robofont.mark = (
0.6,
1,
0.929,
1
);
};
width = 502;
}
);
rightMetricsKey = o;
unicode = 0068;
},
{
color = 4;
glyphname = h_strok;
layers = (
{
anchors = (
{
name = bottom;
position = "{300, 0}";
},
{
name = center;
position = "{300, 350}";
},
{
name = top;
position = "{300, 700}";
}
);
components = (
{
name = h;
}
);
layerId = "03FD986C-C76B-4420-A04C-E6CCB975BB31";
paths = (
{
closed = 1;
nodes = (
"155 565 LINE",
"183 587 OFFCURVE",
"212 608 OFFCURVE",
"243 608 CURVE",
"283 608 OFFCURVE",
"305 585 OFFCURVE",
"305 557 CURVE",
"305 497 OFFCURVE",
"212 424 OFFCURVE",
"131 403 CURVE",
"149 381 LINE",
"282 447 OFFCURVE",
"389 503 OFFCURVE",
"389 599 CURVE",
"389 636 OFFCURVE",
"351 674 OFFCURVE",
"316 690 CURVE",
"273 663 OFFCURVE",
"210 625 OFFCURVE",
"145 599 CURVE"
);
}
);
userData = {
com.schriftgestaltung.Glyphs.ComponentInfo = (
{
alignment = -1;
index = 0;
name = h;
}
);
com.schriftgestaltung.Glyphs.lastChange = "2019-04-23 16:17:58 +0000";
};
width = 502;
}
);
leftMetricsKey = h;
rightMetricsKey = h;
},
{
color = 4;
glyphname = i;
layers = (
{
anchors = (
{
name = bottom;
position = "{141, 0}";
}
);
layerId = "03FD986C-C76B-4420-A04C-E6CCB975BB31";
paths = (
{
closed = 1;
nodes = (
"108 657 OFFCURVE",
"125 674 OFFCURVE",
"150 674 CURVE",
"175 674 OFFCURVE",
"194 657 OFFCURVE",
"194 632 CURVE",
"194 606 OFFCURVE",
"177 588 OFFCURVE",
"151 588 CURVE",
"126 588 OFFCURVE",
"108 606 OFFCURVE",
"108 632 CURVE"
);
},
{
closed = 1;
nodes = (
"181 204 OFFCURVE",
"180 91 OFFCURVE",
"186 63 CURVE",
"191 40 OFFCURVE",
"199 40 OFFCURVE",
"250 18 CURVE",
"250 -7 LINE",
"179 5 OFFCURVE",
"94 1 OFFCURVE",
"35 -8 CURVE",
"35 17 LINE",
"83 33 OFFCURVE",
"96 43 OFFCURVE",
"99 68 CURVE",
"106 128 OFFCURVE",
"103 200 OFFCURVE",
"103 265 CURVE",
"103 341 OFFCURVE",
"75 333 OFFCURVE",
"30 342 CURVE",
"30 357 LINE",
"63 368 OFFCURVE",
"132 391 OFFCURVE",
"178 412 CURVE",
"193 405 LINE",
"193 406 OFFCURVE",
"181 348 OFFCURVE",
"181 259 CURVE"
);
}
);
userData = {
com.schriftgestaltung.Glyphs.lastChange = "2019-03-21 16:55:23 +0000";
com.typemytype.robofont.mark = (
0.6,
1,
0.929,
1
);
};
width = 265;
}
);
leftMetricsKey = n;
unicode = 0069;
},
{
color = 4;
glyphname = idotless;
layers = (
{
anchors = (
{
name = bottom;
position = "{315, 0}";
},
{
name = ogonek;
position = "{555, 10}";
},
{
name = top;
position = "{132, 400}";
}
);
layerId = "03FD986C-C76B-4420-A04C-E6CCB975BB31";
paths = (
{
closed = 1;
nodes = (
"180 204 OFFCURVE",
"178 91 OFFCURVE",
"184 63 CURVE",
"189 40 OFFCURVE",
"197 40 OFFCURVE",
"248 18 CURVE",
"248 -7 LINE",
"177 5 OFFCURVE",
"92 1 OFFCURVE",
"33 -8 CURVE",
"33 17 LINE",
"81 33 OFFCURVE",
"94 43 OFFCURVE",
"97 68 CURVE",
"104 128 OFFCURVE",
"103 200 OFFCURVE",
"103 265 CURVE",
"103 341 OFFCURVE",
"75 333 OFFCURVE",
"30 342 CURVE",
"30 357 LINE",
"63 368 OFFCURVE",
"132 391 OFFCURVE",
"178 412 CURVE",
"193 405 LINE",
"193 406 OFFCURVE",
"180 348 OFFCURVE",
"180 259 CURVE"
);
}
);
userData = {
com.schriftgestaltung.Glyphs.lastChange = "2019-03-21 16:55:23 +0000";
};
width = 263;
}
);
leftMetricsKey = i;
rightMetricsKey = i;
unicode = 0131;
},
{
color = 4;
glyphname = i_macr;
layers = (
{
anchors = (
{
name = _top;
position = "{142.561, 396}";
},
{
name = bottom;
position = "{300, 0}";
},
{
name = top;
position = "{142.561, 669}";
}
);
components = (
{
name = idotless;
}
);
layerId = "03FD986C-C76B-4420-A04C-E6CCB975BB31";
paths = (
{
closed = 1;
nodes = (
"68 520 LINE",
"64 551 OFFCURVE",
"62 578 OFFCURVE",
"68 613 CURVE",
"111 608 OFFCURVE",
"131 600 OFFCURVE",
"166 600 CURVE",
"195 600 OFFCURVE",
"207 611 OFFCURVE",
"226 653 CURVE",
"241 651 OFFCURVE",
"256 650 OFFCURVE",
"271 650 CURVE",
"263 635 LINE",
"250 635 OFFCURVE",
"247 639 OFFCURVE",
"228 594 CURVE",
"210 552 OFFCURVE",
"199 539 OFFCURVE",
"160 539 CURVE",
"131 539 OFFCURVE",
"116 544 OFFCURVE",
"96 546 CURVE",
"87 540 OFFCURVE",
"84 529 OFFCURVE",
"86 513 CURVE"
);
}
);
userData = {
com.schriftgestaltung.Glyphs.ComponentInfo = (
{
alignment = -1;
index = 0;
name = idotless;
}
);
com.schriftgestaltung.Glyphs.lastChange = "2019-03-21 16:55:23 +0000";
};
width = 249;
}
);
unicode = 012B;
},
{
color = 6;
glyphname = j;
layers = (
{
layerId = "03FD986C-C76B-4420-A04C-E6CCB975BB31";
paths = (
{
closed = 1;
nodes = (
"111 653 OFFCURVE",
"125 667 OFFCURVE",
"146 667 CURVE",
"167 667 OFFCURVE",
"182 653 OFFCURVE",
"182 632 CURVE",
"182 611 OFFCURVE",
"168 596 OFFCURVE",
"147 596 CURVE",
"126 596 OFFCURVE",
"111 611 OFFCURVE",
"111 632 CURVE"
);
},
{
closed = 1;
nodes = (
"180 204 OFFCURVE",
"178 31 OFFCURVE",
"184 3 CURVE",
"189 -20 OFFCURVE",
"122 -161 OFFCURVE",
"63 -260 CURVE",
"33 -243 LINE",
"81 -167 OFFCURVE",
"99 -52 OFFCURVE",
"99 58 CURVE",
"99 118 OFFCURVE",
"103 200 OFFCURVE",
"103 265 CURVE",
"103 341 OFFCURVE",
"75 333 OFFCURVE",
"30 342 CURVE",
"30 357 LINE",
"63 368 OFFCURVE",
"132 391 OFFCURVE",
"178 412 CURVE",
"193 405 LINE",
"193 406 OFFCURVE",
"180 348 OFFCURVE",
"180 259 CURVE"
);
}
);
userData = {
com.schriftgestaltung.Glyphs.lastChange = "2019-03-19 10:20:51 +0000";
};
width = 238;
}
);
leftMetricsKey = i;
unicode = 006A;
},
{
color = 4;
glyphname = k;
layers = (
{
layerId = "03FD986C-C76B-4420-A04C-E6CCB975BB31";
paths = (
{
closed = 1;
nodes = (
"171 -2 LINE",
"165 26 OFFCURVE",
"165 422 OFFCURVE",
"165 497 CURVE",
"165 629 OFFCURVE",
"189 707 OFFCURVE",
"189 706 CURVE",
"174 713 LINE",
"106 682 OFFCURVE",
"48 666 OFFCURVE",
"15 655 CURVE",
"15 640 LINE",
"60 631 OFFCURVE",
"84 598 OFFCURVE",
"85 482 CURVE",
"86 386 OFFCURVE",
"91 50 OFFCURVE",
"84 -10 CURVE"
);
},
{
closed = 1;
nodes = (
"146 325 LINE",
"234 329 OFFCURVE",
"311 330 OFFCURVE",
"402 327 CURVE",
"391 351 LINE",
"284 243 OFFCURVE",
"245 217 OFFCURVE",
"130 179 CURVE",
"134 154 LINE",
"271 196 LINE",
"327 247 OFFCURVE",
"412 323 OFFCURVE",
"478 372 CURVE",
"479 401 LINE",
"363 398 OFFCURVE",
"246 396 OFFCURVE",
"130 397 CURVE"
);
},
{
closed = 1;
nodes = (
"204 186 LINE",
"269 139 OFFCURVE",
"350 59 OFFCURVE",
"407 -18 CURVE",
"503 40 LINE",
"491 64 LINE",
"464 62 OFFCURVE",
"442 76 OFFCURVE",
"418 98 CURVE",
"281 222 LINE"
);
}
);
userData = {
com.schriftgestaltung.Glyphs.lastChange = "2019-04-24 16:49:01 +0000";
};
width = 508;
}
);
leftMetricsKey = l;
unicode = 006B;
},
{
color = 4;
glyphname = l;
layers = (
{
anchors = (
{
name = bottom;
position = "{125, 0}";
},
{
name = center;
position = "{125, 350}";
},
{
name = top;
position = "{125, 700}";
},
{
name = topright;
position = "{225, 700}";
}
);
layerId = "03FD986C-C76B-4420-A04C-E6CCB975BB31";
paths = (
{
closed = 1;
nodes = (
"165 91 OFFCURVE",
"165 442 OFFCURVE",
"165 497 CURVE",
"165 629 OFFCURVE",
"189 707 OFFCURVE",
"189 706 CURVE",
"174 713 LINE",
"116 642 OFFCURVE",
"48 606 OFFCURVE",
"15 595 CURVE",
"15 580 LINE",
"60 571 OFFCURVE",
"84 538 OFFCURVE",
"85 422 CURVE",
"86 326 OFFCURVE",
"91 128 OFFCURVE",
"84 68 CURVE",
"81 43 OFFCURVE",
"68 33 OFFCURVE",
"30 17 CURVE",
"30 -8 LINE",
"79 1 OFFCURVE",
"164 5 OFFCURVE",
"235 -7 CURVE",
"235 18 LINE",
"184 40 OFFCURVE",
"176 40 OFFCURVE",
"171 63 CURVE"
);
}
);
userData = {
com.schriftgestaltung.Glyphs.lastChange = "2019-03-21 16:55:23 +0000";
com.typemytype.robofont.mark = (
0.6,
1,
0.929,
1
);
};
width = 250;
}
);
unicode = 006C;
},
{
color = 4;
glyphname = l_strok;
layers = (
{
anchors = (
{
name = bottom;
position = "{300, 0}";
},
{
name = center;
position = "{300, 350}";
},
{
name = top;
position = "{300, 700}";
},
{
name = topright;
position = "{580, 700}";
}
);
components = (
{
name = l;
}
);
layerId = "03FD986C-C76B-4420-A04C-E6CCB975BB31";
paths = (
{
closed = 1;
nodes = (
"153 551 LINE",
"181 575 OFFCURVE",
"210 598 OFFCURVE",
"241 598 CURVE",
"281 598 OFFCURVE",
"303 573 OFFCURVE",
"303 542 CURVE",
"303 476 OFFCURVE",
"210 397 OFFCURVE",
"129 374 CURVE",
"147 349 LINE",
"280 422 OFFCURVE",
"387 483 OFFCURVE",
"387 588 CURVE",
"387 629 OFFCURVE",
"349 670 OFFCURVE",
"314 688 CURVE",
"271 658 OFFCURVE",
"208 617 OFFCURVE",
"143 588 CURVE"
);
}
);
userData = {
com.schriftgestaltung.Glyphs.ComponentInfo = (
{
alignment = -1;
index = 0;
name = l;
}
);
com.schriftgestaltung.Glyphs.lastChange = "2019-04-23 16:17:56 +0000";
};
width = 402;
}
);
leftMetricsKey = l;
rightMetricsKey = l;
unicode = A769;
},
{
color = 4;
glyphname = m;
layers = (
{
anchors = (
{
name = bottom;
position = "{403, 0}";
},
{
name = top;
position = "{403, 400}";
}
);
layerId = "03FD986C-C76B-4420-A04C-E6CCB975BB31";
paths = (
{
closed = 1;
nodes = (
"175 121 OFFCURVE",
"176 274 OFFCURVE",
"176 326 CURVE",
"176 364 OFFCURVE",
"136 404 OFFCURVE",
"94 410 CURVE",
"30 364 LINE",
"30 345 LINE",
"78 328 OFFCURVE",
"97 287 OFFCURVE",
"96 240 CURVE",
"94 66 LINE SMOOTH",
"94 28 OFFCURVE",
"94 25 OFFCURVE",
"50 20 CURVE",
"50 -5 LINE",
"107 1 OFFCURVE",
"156 1 OFFCURVE",
"226 -5 CURVE",
"226 20 LINE",
"177 29 OFFCURVE",
"180 34 OFFCURVE",
"178 66 CURVE"
);
},
{
closed = 1;
nodes = (
"455 307 LINE SMOOTH",
"455 366 OFFCURVE",
"409 410 OFFCURVE",
"353 410 CURVE",
"307 410 OFFCURVE",
"231 367 OFFCURVE",
"162 326 CURVE",
"166 282 LINE",
"207 323 OFFCURVE",
"249 335 OFFCURVE",
"290 335 CURVE",
"353 335 OFFCURVE",
"376 305 OFFCURVE",
"376 240 CURVE",
"376 192 OFFCURVE",
"375 119 OFFCURVE",
"374 66 CURVE",
"373 28 OFFCURVE",
"372 25 OFFCURVE",
"318 20 CURVE",
"318 -5 LINE",
"375 1 OFFCURVE",
"434 1 OFFCURVE",
"514 -5 CURVE",
"514 20 LINE",
"455 29 OFFCURVE",
"457 35 OFFCURVE",
"457 66 CURVE"
);
},
{
closed = 1;
nodes = (
"737 307 LINE SMOOTH",
"737 366 OFFCURVE",
"691 410 OFFCURVE",
"635 410 CURVE",
"589 410 OFFCURVE",
"513 367 OFFCURVE",
"444 326 CURVE",
"448 282 LINE",
"489 323 OFFCURVE",
"531 335 OFFCURVE",
"572 335 CURVE",
"635 335 OFFCURVE",
"658 305 OFFCURVE",
"658 240 CURVE",
"658 192 OFFCURVE",
"657 119 OFFCURVE",
"656 66 CURVE",
"655 28 OFFCURVE",
"654 25 OFFCURVE",
"600 20 CURVE",
"600 -5 LINE",
"657 1 OFFCURVE",
"716 1 OFFCURVE",
"796 -5 CURVE",
"796 20 LINE",
"737 29 OFFCURVE",
"739 35 OFFCURVE",
"739 66 CURVE"
);
}
);
userData = {
com.schriftgestaltung.Glyphs.lastChange = "2019-04-24 16:49:01 +0000";
com.typemytype.robofont.mark = (
0.6,
1,
0.929,
1
);
};
width = 806;
}
);
unicode = 006D;
},
{
color = 4;
glyphname = n;
layers = (
{
anchors = (
{
name = bottom;
position = "{242, 0}";
},
{
name = top;
position = "{242, 400}";
}
);
layerId = "03FD986C-C76B-4420-A04C-E6CCB975BB31";
paths = (
{
closed = 1;
nodes = (
"155 121 OFFCURVE",
"156 378 OFFCURVE",
"156 326 CURVE",
"156 314 OFFCURVE",
"137 398 OFFCURVE",
"132 420 CURVE",
"113 421 LINE",
"30 362 LINE",
"30 343 LINE",
"75 317 OFFCURVE",
"77 287 OFFCURVE",
"76 240 CURVE",
"74 66 LINE SMOOTH",
"74 28 OFFCURVE",
"74 25 OFFCURVE",
"30 20 CURVE",
"30 -5 LINE",
"87 1 OFFCURVE",
"136 1 OFFCURVE",
"206 -5 CURVE",
"206 20 LINE",
"157 29 OFFCURVE",
"160 34 OFFCURVE",
"158 66 CURVE"
);
},
{
closed = 1;
nodes = (
"435 307 LINE SMOOTH",
"435 366 OFFCURVE",
"389 410 OFFCURVE",
"333 410 CURVE",
"287 410 OFFCURVE",
"211 367 OFFCURVE",
"142 326 CURVE",
"146 282 LINE",
"187 323 OFFCURVE",
"229 335 OFFCURVE",
"270 335 CURVE",
"333 335 OFFCURVE",
"356 305 OFFCURVE",
"356 240 CURVE",
"356 192 OFFCURVE",
"355 119 OFFCURVE",
"354 66 CURVE",
"353 28 OFFCURVE",
"352 25 OFFCURVE",
"298 20 CURVE",
"298 -5 LINE",
"355 1 OFFCURVE",
"414 1 OFFCURVE",
"494 -5 CURVE",
"494 20 LINE",
"435 29 OFFCURVE",
"437 35 OFFCURVE",
"437 66 CURVE"
);
}
);
userData = {
com.schriftgestaltung.Glyphs.lastChange = "2019-03-21 16:55:23 +0000";
};
width = 519;
}
);
unicode = 006E;
},
{
color = 4;
glyphname = n_hook;
layers = (
{
components = (
{
name = n;
}
);
layerId = "03FD986C-C76B-4420-A04C-E6CCB975BB31";
paths = (
{
closed = 1;
nodes = (
"499 579 LINE",
"403 819 OFFCURVE",
"171 695 OFFCURVE",
"316 494 CURVE",
"349 494 LINE",
"287 605 OFFCURVE",
"410 659 OFFCURVE",
"475 547 CURVE"
);
}
);
userData = {
com.schriftgestaltung.Glyphs.lastChange = "2019-04-23 17:29:22 +0000";
};
width = 504;
}
);
leftMetricsKey = n;
},
{
color = 4;
glyphname = n_macr;
layers = (
{
anchors = (
{
name = _top;
position = "{242, 400}";
},
{
name = top;
position = "{242, 673}";
}
);
components = (
{
name = n;
}
);
layerId = "03FD986C-C76B-4420-A04C-E6CCB975BB31";
paths = (
{
closed = 1;
nodes = (
"128 495 LINE",
"227 611 LINE",
"358 598 OFFCURVE",
"392 631 OFFCURVE",
"468 708 CURVE",
"492 687 LINE",
"455 667 OFFCURVE",
"411 577 OFFCURVE",
"386 523 CURVE",
"264 530 OFFCURVE",
"239 545 OFFCURVE",
"144 479 CURVE"
);
}
);
userData = {
com.schriftgestaltung.Glyphs.lastChange = "2019-04-23 17:34:34 +0000";
};
width = 519;
}
);
},
{
color = 4;
glyphname = o;
layers = (
{
anchors = (
{
name = bottom;
position = "{231, 0}";
},
{
name = center;
position = "{231, 200}";
},
{
name = ogonek;
position = "{416, 10}";
},
{
name = top;
position = "{231, 400}";
},
{
name = topright;
position = "{442, 400}";
}
);
layerId = "03FD986C-C76B-4420-A04C-E6CCB975BB31";
paths = (
{
closed = 1;
nodes = (
"116 308 OFFCURVE",
"100 255 OFFCURVE",
"100 208 CURVE",
"100 104 OFFCURVE",
"180 48 OFFCURVE",
"246 48 CURVE",
"310 48 OFFCURVE",
"348 113 OFFCURVE",
"348 187 CURVE",
"348 290 OFFCURVE",
"265 359 OFFCURVE",
"157 343 CURVE"
);
},
{
closed = 1;
nodes = (
"85 20 OFFCURVE",
"25 86 OFFCURVE",
"25 187 CURVE",
"25 250 OFFCURVE",
"41 288 OFFCURVE",
"80 335 CURVE",
"118 357 OFFCURVE",
"157 383 OFFCURVE",
"206 413 CURVE",
"332 401 OFFCURVE",
"425 345 OFFCURVE",
"425 203 CURVE",
"425 92 OFFCURVE",
"344 23 OFFCURVE",
"260 5 CURVE",
"222 -3 OFFCURVE",
"202 -4 OFFCURVE",
"179 -10 CURVE"
);
}
);
userData = {
com.schriftgestaltung.Glyphs.lastChange = "2019-04-24 16:49:08 +0000";
com.typemytype.robofont.mark = (
0.6,
1,
0.929,
1
);
};
width = 450;
}
);
unicode = 006F;
},
{
color = 4;
glyphname = o_hook;
layers = (
{
anchors = (
{
name = bottom;
position = "{300, 0}";
},
{
name = center;
position = "{300, 200}";
},
{
name = ogonek;
position = "{540, 10}";
},
{
name = top;
position = "{300, 400}";
},
{
name = topright;
position = "{580, 400}";
}
);
components = (
{
name = o;
}
);
layerId = "03FD986C-C76B-4420-A04C-E6CCB975BB31";
paths = (
{
closed = 1;
nodes = (
"276 517 LINE",
"431 632 OFFCURVE",
"340 799 OFFCURVE",
"181 655 CURVE",
"186 626 LINE",
"268 693 OFFCURVE",
"332 605 OFFCURVE",
"249 536 CURVE"
);
}
);
userData = {
com.schriftgestaltung.Glyphs.lastChange = "2019-03-21 16:55:23 +0000";
};
width = 450;
}
);
},
{
color = 4;
glyphname = o_macr;
layers = (
{
anchors = (
{
name = _top;
position = "{232, 400}";
},
{
name = bottom;
position = "{300, 0}";
},
{
name = center;
position = "{300, 200}";
},
{
name = ogonek;
position = "{540, 10}";
},
{
name = top;
position = "{300, 400}";
},
{
name = topright;
position = "{580, 400}";
}
);
components = (
{
name = o;
}
);
layerId = "03FD986C-C76B-4420-A04C-E6CCB975BB31";
paths = (
{
closed = 1;
nodes = (
"83 519 LINE",
"165 615 LINE",
"273 604 OFFCURVE",
"301 631 OFFCURVE",
"364 695 CURVE",
"384 678 LINE",
"353 661 OFFCURVE",
"317 587 OFFCURVE",
"296 542 CURVE",
"195 548 OFFCURVE",
"175 560 OFFCURVE",
"96 506 CURVE"
);
}
);
userData = {
com.schriftgestaltung.Glyphs.ComponentInfo = (
{
alignment = -1;
index = 0;
name = o;
}
);
com.schriftgestaltung.Glyphs.lastChange = "2019-04-23 16:17:47 +0000";
};
width = 450;
}
);
leftMetricsKey = o;
rightMetricsKey = o;
unicode = 014D;
},
{
color = 4;
glyphname = o_e;
layers = (
{
anchors = (
{
name = bottom;
position = "{231, 0}";
},
{
name = center;
position = "{231, 200}";
},
{
name = ogonek;
position = "{416, 10}";
},
{
name = top;
position = "{231, 400}";
},
{
name = topright;
position = "{442, 400}";
}
);
layerId = "03FD986C-C76B-4420-A04C-E6CCB975BB31";
paths = (
{
closed = 1;
nodes = (
"116 308 OFFCURVE",
"100 255 OFFCURVE",
"100 208 CURVE",
"100 104 OFFCURVE",
"180 48 OFFCURVE",
"246 48 CURVE",
"310 48 OFFCURVE",
"348 113 OFFCURVE",
"348 187 CURVE",
"348 290 OFFCURVE",
"265 359 OFFCURVE",
"157 343 CURVE"
);
},
{
closed = 1;
nodes = (
"85 20 OFFCURVE",
"25 86 OFFCURVE",
"25 187 CURVE",
"25 250 OFFCURVE",
"41 288 OFFCURVE",
"80 335 CURVE",
"118 357 OFFCURVE",
"157 383 OFFCURVE",
"206 413 CURVE",
"332 401 OFFCURVE",
"425 345 OFFCURVE",
"425 203 CURVE",
"425 92 OFFCURVE",
"344 23 OFFCURVE",
"260 5 CURVE",
"222 -3 OFFCURVE",
"202 -4 OFFCURVE",
"179 -10 CURVE"
);
},
{
closed = 1;
nodes = (
"442 121 OFFCURVE",
"495 50 OFFCURVE",
"567 50 CURVE",
"606 50 OFFCURVE",
"644 63 OFFCURVE",
"664 72 CURVE",
"675 46 LINE",
"632 29 OFFCURVE",
"589 8 OFFCURVE",
"544 -10 CURVE",
"429 -10 OFFCURVE",
"363 83 OFFCURVE",
"363 197 CURVE",
"363 247 OFFCURVE",
"372 292 OFFCURVE",
"389 325 CURVE",
"423 356 OFFCURVE",
"499 399 OFFCURVE",
"563 411 CURVE",
"644 386 OFFCURVE",
"674 336 OFFCURVE",
"701 263 CURVE",
"699 260 LINE",
"623 236 OFFCURVE",
"497 199 OFFCURVE",
"439 174 CURVE",
"433 209 LINE",
"489 221 OFFCURVE",
"554 241 OFFCURVE",
"607 267 CURVE",
"590 306 OFFCURVE",
"544 360 OFFCURVE",
"517 360 CURVE",
"479 360 OFFCURVE",
"442 294 OFFCURVE",
"442 216 CURVE"
);
}
);
userData = {
com.schriftgestaltung.Glyphs.ComponentInfo = (
{
alignment = -1;
index = 1;
name = e;
}
);
com.schriftgestaltung.Glyphs.lastChange = "2019-04-24 19:31:12 +0000";
};
width = 706;
}
);
leftMetricsKey = o;
rightMetricsKey = e;
},
{
color = 4;
glyphname = p;
layers = (
{
anchors = (
{
name = bottom;
position = "{263, 0}";
},
{
name = top;
position = "{263, 400}";
}
);
layerId = "03FD986C-C76B-4420-A04C-E6CCB975BB31";
paths = (
{
closed = 1;
nodes = (
"151 -120 OFFCURVE",
"151 264 OFFCURVE",
"151 316 CURVE",
"151 354 OFFCURVE",
"138 391 OFFCURVE",
"100 408 CURVE",
"15 335 LINE",
"15 316 LINE",
"70 295 OFFCURVE",
"73 266 OFFCURVE",
"73 220 CURVE",
"73 80 OFFCURVE",
"74 -35 OFFCURVE",
"69 -185 CURVE",
"68 -213 OFFCURVE",
"69 -226 OFFCURVE",
"25 -231 CURVE",
"25 -256 LINE",
"82 -250 OFFCURVE",
"131 -250 OFFCURVE",
"211 -256 CURVE",
"211 -231 LINE",
"152 -222 OFFCURVE",
"155 -207 OFFCURVE",
"154 -185 CURVE"
);
},
{
closed = 1;
nodes = (
"146 272 LINE",
"178 305 OFFCURVE",
"224 336 OFFCURVE",
"282 336 CURVE",
"370 336 OFFCURVE",
"426 280 OFFCURVE",
"426 199 CURVE",
"426 118 OFFCURVE",
"378 51 OFFCURVE",
"291 51 CURVE",
"217 51 OFFCURVE",
"155 101 OFFCURVE",
"150 161 CURVE",
"140 51 LINE",
"200 37 OFFCURVE",
"281 -2 OFFCURVE",
"321 -21 CURVE",
"436 16 OFFCURVE",
"505 88 OFFCURVE",
"505 209 CURVE",
"505 330 OFFCURVE",
"408 411 OFFCURVE",
"291 411 CURVE",
"253 411 OFFCURVE",
"188 348 OFFCURVE",
"146 319 CURVE"
);
}
);
userData = {
com.schriftgestaltung.Glyphs.lastChange = "2019-03-21 16:55:23 +0000";
com.typemytype.robofont.mark = (
0.6,
1,
0.929,
1
);
};
width = 530;
}
);
rightMetricsKey = o;
unicode = 0070;
},
{
color = 4;
glyphname = p_bardes;
layers = (
{
anchors = (
{
name = bottom;
position = "{300, 0}";
},
{
name = top;
position = "{300, 400}";
}
);
components = (
{
name = p;
}
);
layerId = "03FD986C-C76B-4420-A04C-E6CCB975BB31";
paths = (
{
closed = 1;
nodes = (
"22 -160 LINE",
"136 -162 OFFCURVE",
"255 -167 OFFCURVE",
"369 -175 CURVE",
"372 -161 LINE",
"177 -121 LINE",
"21 -124 LINE"
);
}
);
userData = {
com.schriftgestaltung.Glyphs.ComponentInfo = (
{
alignment = -1;
index = 0;
name = p;
}
);
com.schriftgestaltung.Glyphs.lastChange = "2019-04-23 17:28:46 +0000";
};
width = 530;
}
);
leftMetricsKey = p;
rightMetricsKey = p;
unicode = A750;
},
{
color = 4;
glyphname = p_hook;
layers = (
{
components = (
{
name = p;
}
);
layerId = "03FD986C-C76B-4420-A04C-E6CCB975BB31";
paths = (
{
closed = 1;
nodes = (
"129 484 LINE",
"338 593 OFFCURVE",
"244 786 OFFCURVE",
"59 655 CURVE",
"60 627 LINE",
"155 698 OFFCURVE",
"228 561 OFFCURVE",
"106 504 CURVE"
);
}
);
userData = {
com.schriftgestaltung.Glyphs.lastChange = "2019-03-21 16:55:23 +0000";
};
width = 530;
}
);
},
{
color = 4;
glyphname = p_flour;
layers = (
{
anchors = (
{
name = bottom;
position = "{635, 0}";
},
{
name = top;
position = "{635, 400}";
}
);
layerId = "03FD986C-C76B-4420-A04C-E6CCB975BB31";
paths = (
{
closed = 1;
nodes = (
"317 -114 OFFCURVE",
"318 264 OFFCURVE",
"318 316 CURVE",
"305 354 OFFCURVE",
"296 362 OFFCURVE",
"271 409 CURVE",
"251 408 LINE",
"182 335 LINE",
"182 316 LINE",
"237 295 OFFCURVE",
"240 266 OFFCURVE",
"240 220 CURVE",
"240 80 OFFCURVE",
"241 -29 OFFCURVE",
"236 -179 CURVE",
"235 -207 OFFCURVE",
"236 -220 OFFCURVE",
"192 -225 CURVE",
"192 -250 LINE",
"249 -244 OFFCURVE",
"298 -244 OFFCURVE",
"378 -250 CURVE",
"378 -225 LINE",
"319 -216 OFFCURVE",
"322 -201 OFFCURVE",
"321 -179 CURVE"
);
},
{
closed = 1;
nodes = (
"313 272 LINE",
"345 305 OFFCURVE",
"391 336 OFFCURVE",
"449 336 CURVE",
"535 336 OFFCURVE",
"593 280 OFFCURVE",
"593 199 CURVE",
"593 118 OFFCURVE",
"537 33 OFFCURVE",
"430 33 CURVE",
"346 33 OFFCURVE",
"342 38 OFFCURVE",
"317 38 CURVE",
"307 4 LINE",
"367 0 OFFCURVE",
"428 -10 OFFCURVE",
"468 -19 CURVE",
"583 18 OFFCURVE",
"672 88 OFFCURVE",
"672 209 CURVE",
"672 330 OFFCURVE",
"575 411 OFFCURVE",
"458 411 CURVE",
"420 411 OFFCURVE",
"355 348 OFFCURVE",
"313 319 CURVE"
);
},
{
closed = 1;
nodes = (
"280 41 LINE",
"111 28 OFFCURVE",
"-8 -47 OFFCURVE",
"-5 -162 CURVE",
"-4 -196 OFFCURVE",
"6 -231 OFFCURVE",
"31 -259 CURVE",
"59 -259 OFFCURVE",
"102 -240 OFFCURVE",
"147 -224 CURVE",
"148 -202 LINE",
"113 -196 OFFCURVE",
"66 -168 OFFCURVE",
"66 -129 CURVE",
"66 -34 OFFCURVE",
"187 13 OFFCURVE",
"295 1 CURVE"
);
}
);
userData = {
com.schriftgestaltung.Glyphs.lastChange = "2019-03-21 16:55:23 +0000";
};
width = 697;
}
);
rightMetricsKey = p;
unicode = A753;
},
{
color = 4;
glyphname = p_ra;
layers = (
{
anchors = (
{
name = bottom;
position = "{300, 0}";
},
{
name = top;
position = "{300, 400}";
}
);
components = (
{
name = p;
}
);
layerId = "03FD986C-C76B-4420-A04C-E6CCB975BB31";
paths = (
{
closed = 1;
nodes = (
"79 562 LINE",
"92 572 OFFCURVE",
"163 630 OFFCURVE",
"187 650 CURVE",
"214 635 OFFCURVE",
"246 618 OFFCURVE",
"272 605 CURVE",
"334 653 LINE",
"384 616 OFFCURVE",
"409 600 OFFCURVE",
"445 632 CURVE",
"468 619 LINE",
"440 590 OFFCURVE",
"412 560 OFFCURVE",
"377 530 CURVE",
"337 554 OFFCURVE",
"304 574 OFFCURVE",
"271 580 CURVE",
"238 565 OFFCURVE",
"208 541 OFFCURVE",
"193 532 CURVE",
"140 566 OFFCURVE",
"140 567 OFFCURVE",
"102 547 CURVE"
);
}
);
userData = {
com.schriftgestaltung.Glyphs.ComponentInfo = (
{
alignment = -1;
index = 0;
name = p;
}
);
com.schriftgestaltung.Glyphs.lastChange = "2019-04-23 16:17:43 +0000";
};
width = 530;
}
);
leftMetricsKey = p;
rightMetricsKey = p;
},
{
color = 4;
glyphname = q;
layers = (
{
anchors = (
{
name = bottom;
position = "{261, 0}";
},
{
name = top;
position = "{261, 400}";
}
);
layerId = "03FD986C-C76B-4420-A04C-E6CCB975BB31";
paths = (
{
closed = 1;
nodes = (
"375 334 OFFCURVE",
"375 -114 OFFCURVE",
"372 -179 CURVE",
"371 -201 OFFCURVE",
"374 -216 OFFCURVE",
"315 -225 CURVE",
"315 -250 LINE",
"395 -244 OFFCURVE",
"444 -244 OFFCURVE",
"501 -250 CURVE",
"501 -225 LINE",
"457 -220 OFFCURVE",
"458 -207 OFFCURVE",
"457 -179 CURVE",
"452 -29 OFFCURVE",
"453 85 OFFCURVE",
"453 220 CURVE",
"453 317 OFFCURVE",
"452 347 OFFCURVE",
"479 411 CURVE",
"460 420 LINE",
"440 400 OFFCURVE",
"395 374 OFFCURVE",
"375 366 CURVE"
);
},
{
closed = 1;
nodes = (
"433 366 LINE",
"386 388 OFFCURVE",
"342 411 OFFCURVE",
"260 411 CURVE",
"132 411 OFFCURVE",
"25 326 OFFCURVE",
"25 189 CURVE",
"25 88 OFFCURVE",
"71 14 OFFCURVE",
"209 -15 CURVE",
"249 -6 OFFCURVE",
"330 38 OFFCURVE",
"390 52 CURVE",
"375 140 LINE",
"356 87 OFFCURVE",
"315 51 OFFCURVE",
"239 51 CURVE",
"160 51 OFFCURVE",
"104 118 OFFCURVE",
"104 199 CURVE",
"104 280 OFFCURVE",
"160 348 OFFCURVE",
"248 348 CURVE",
"306 348 OFFCURVE",
"354 323 OFFCURVE",
"375 273 CURVE"
);
}
);
userData = {
com.schriftgestaltung.Glyphs.lastChange = "2019-04-23 16:16:42 +0000";
com.typemytype.robofont.mark = (
0.6,
1,
0.929,
1
);
};
width = 516;
}
);
leftMetricsKey = o;
unicode = 0071;
},
{
color = 4;
glyphname = q_bardes;
layers = (
{
anchors = (
{
name = bottom;
position = "{300, 0}";
},
{
name = top;
position = "{300, 400}";
}
);
layerId = "03FD986C-C76B-4420-A04C-E6CCB975BB31";
paths = (
{
closed = 1;
nodes = (
"375 334 OFFCURVE",
"375 -114 OFFCURVE",
"372 -179 CURVE",
"371 -201 OFFCURVE",
"374 -216 OFFCURVE",
"315 -225 CURVE",
"315 -250 LINE",
"395 -244 OFFCURVE",
"444 -244 OFFCURVE",
"511 -250 CURVE",
"511 -225 LINE",
"457 -220 OFFCURVE",
"458 -207 OFFCURVE",
"457 -179 CURVE",
"452 -29 OFFCURVE",
"453 85 OFFCURVE",
"453 220 CURVE",
"453 317 OFFCURVE",
"452 347 OFFCURVE",
"479 411 CURVE",
"460 420 LINE",
"440 400 OFFCURVE",
"395 374 OFFCURVE",
"375 366 CURVE"
);
},
{
closed = 1;
nodes = (
"433 369 LINE",
"386 380 OFFCURVE",
"302 401 OFFCURVE",
"239 411 CURVE",
"164 362 OFFCURVE",
"25 300 OFFCURVE",
"25 173 CURVE",
"25 62 OFFCURVE",
"101 14 OFFCURVE",
"209 -15 CURVE",
"249 -6 OFFCURVE",
"330 48 OFFCURVE",
"390 62 CURVE",
"375 141 LINE",
"356 88 OFFCURVE",
"315 51 OFFCURVE",
"239 51 CURVE",
"160 51 OFFCURVE",
"104 118 OFFCURVE",
"104 199 CURVE",
"104 280 OFFCURVE",
"152 338 OFFCURVE",
"240 338 CURVE",
"298 338 OFFCURVE",
"354 311 OFFCURVE",
"375 261 CURVE"
);
},
{
closed = 1;
nodes = (
"98 -165 LINE",
"528 -114 LINE",
"530 -92 LINE",
"105 -127 LINE"
);
}
);
userData = {
com.schriftgestaltung.Glyphs.lastChange = "2019-04-23 17:31:42 +0000";
};
width = 550;
}
);
leftMetricsKey = q;
unicode = A757;
},
{
color = 4;
glyphname = q_ring;
layers = (
{
anchors = (
{
name = bottom;
position = "{300, 0}";
},
{
name = top;
position = "{300, 400}";
}
);
components = (
{
name = q;
}
);
layerId = "03FD986C-C76B-4420-A04C-E6CCB975BB31";
paths = (
{
closed = 1;
nodes = (
"302 618 OFFCURVE",
"294 593 OFFCURVE",
"294 571 CURVE",
"294 523 OFFCURVE",
"332 497 OFFCURVE",
"363 497 CURVE",
"391 497 OFFCURVE",
"409 528 OFFCURVE",
"409 563 CURVE",
"409 608 OFFCURVE",
"370 641 OFFCURVE",
"320 634 CURVE"
);
},
{
closed = 1;
nodes = (
"284 479 OFFCURVE",
"246 511 OFFCURVE",
"246 562 CURVE",
"246 592 OFFCURVE",
"262 610 OFFCURVE",
"282 633 CURVE",
"301 645 OFFCURVE",
"319 657 OFFCURVE",
"344 672 CURVE",
"405 666 OFFCURVE",
"457 638 OFFCURVE",
"457 570 CURVE",
"457 514 OFFCURVE",
"411 479 OFFCURVE",
"369 472 CURVE",
"351 469 OFFCURVE",
"342 469 OFFCURVE",
"329 465 CURVE"
);
}
);
userData = {
com.schriftgestaltung.Glyphs.lastChange = "2019-04-23 16:18:30 +0000";
};
width = 521;
}
);
leftMetricsKey = q;
},
{
color = 4;
glyphname = q_etfin;
layers = (
{
anchors = (
{
name = bottom;
position = "{658, 0}";
},
{
name = bottom_1;
position = "{199, 0}";
},
{
name = bottom_2;
position = "{596, 0}";
},
{
name = caret_1;
position = "{397.5, 0}";
},
{
name = top;
position = "{658, 400}";
},
{
name = top_1;
position = "{199, 400}";
},
{
name = top_2;
position = "{596, 400}";
}
);
components = (
{
name = q;
}
);
layerId = "03FD986C-C76B-4420-A04C-E6CCB975BB31";
paths = (
{
closed = 1;
nodes = (
"513 350 OFFCURVE",
"457 291 OFFCURVE",
"407 266 CURVE",
"419 247 LINE",
"520 311 OFFCURVE",
"580 277 OFFCURVE",
"580 222 CURVE",
"580 148 OFFCURVE",
"514 117 OFFCURVE",
"429 79 CURVE",
"439 58 LINE",
"539 91 OFFCURVE",
"584 66 OFFCURVE",
"584 18 CURVE",
"584 -62 OFFCURVE",
"493 -97 OFFCURVE",
"434 -122 CURVE",
"445 -150 LINE",
"513 -121 OFFCURVE",
"664 -58 OFFCURVE",
"664 26 CURVE",
"664 107 OFFCURVE",
"578 124 OFFCURVE",
"507 118 CURVE",
"520 109 LINE",
"549 110 OFFCURVE",
"671 171 OFFCURVE",
"674 258 CURVE",
"676 323 OFFCURVE",
"633 350 OFFCURVE",
"573 350 CURVE"
);
}
);
userData = {
com.schriftgestaltung.Glyphs.lastChange = "2019-03-21 16:55:23 +0000";
};
width = 699;
}
);
leftMetricsKey = q;
},
{
color = 4;
glyphname = q_etfin_ring;
layers = (
{
anchors = (
{
name = bottom_1;
position = "{150, 0}";
},
{
name = bottom_2;
position = "{450, 0}";
},
{
name = bottom_3;
position = "{750, 0}";
},
{
name = caret_1;
position = "{200, 0}";
},
{
name = caret_2;
position = "{400, 0}";
},
{
name = top_1;
position = "{150, 400}";
},
{
name = top_2;
position = "{450, 400}";
},
{
name = top_3;
position = "{750, 400}";
}
);
components = (
{
name = q_etfin;
}
);
layerId = "03FD986C-C76B-4420-A04C-E6CCB975BB31";
paths = (
{
closed = 1;
nodes = (
"251 618 OFFCURVE",
"243 593 OFFCURVE",
"243 571 CURVE",
"243 523 OFFCURVE",
"281 497 OFFCURVE",
"312 497 CURVE",
"340 497 OFFCURVE",
"358 528 OFFCURVE",
"358 563 CURVE",
"358 608 OFFCURVE",
"319 641 OFFCURVE",
"269 634 CURVE"
);
},
{
closed = 1;
nodes = (
"233 479 OFFCURVE",
"195 511 OFFCURVE",
"195 562 CURVE",
"195 592 OFFCURVE",
"211 610 OFFCURVE",
"231 633 CURVE",
"250 645 OFFCURVE",
"268 657 OFFCURVE",
"293 672 CURVE",
"354 666 OFFCURVE",
"406 638 OFFCURVE",
"406 570 CURVE",
"406 514 OFFCURVE",
"360 479 OFFCURVE",
"318 472 CURVE",
"300 469 OFFCURVE",
"291 469 OFFCURVE",
"278 465 CURVE"
);
}
);
userData = {
com.schriftgestaltung.Glyphs.lastChange = "2019-04-23 16:18:33 +0000";
};
width = 699;
}
);
leftMetricsKey = q;
},
{
color = 4;
glyphname = q_etfin_ra;
layers = (
{
anchors = (
{
name = bottom_1;
position = "{100, 0}";
},
{
name = bottom_2;
position = "{300, 0}";
},
{
name = bottom_3;
position = "{500, 0}";
},
{
name = caret_1;
position = "{200, 0}";
},
{
name = caret_2;
position = "{400, 0}";
},
{
name = top_1;
position = "{100, 400}";
},
{
name = top_2;
position = "{300, 400}";
},
{
name = top_3;
position = "{500, 400}";
}
);
components = (
{
name = q_etfin;
}
);
layerId = "03FD986C-C76B-4420-A04C-E6CCB975BB31";
paths = (
{
closed = 1;
nodes = (
"147 558 LINE",
"160 568 OFFCURVE",
"231 626 OFFCURVE",
"255 646 CURVE",
"282 631 OFFCURVE",
"314 614 OFFCURVE",
"340 601 CURVE",
"402 649 LINE",
"452 612 OFFCURVE",
"477 596 OFFCURVE",
"513 628 CURVE",
"536 615 LINE",
"508 586 OFFCURVE",
"480 556 OFFCURVE",
"445 526 CURVE",
"405 550 OFFCURVE",
"372 570 OFFCURVE",
"339 576 CURVE",
"306 561 OFFCURVE",
"276 537 OFFCURVE",
"261 528 CURVE",
"208 562 OFFCURVE",
"208 563 OFFCURVE",
"170 543 CURVE"
);
}
);
userData = {
com.schriftgestaltung.Glyphs.ComponentInfo = (
{
alignment = -1;
index = 0;
name = q_etfin;
}
);
com.schriftgestaltung.Glyphs.lastChange = "2019-04-23 16:18:36 +0000";
};
width = 699;
}
);
leftMetricsKey = q;
},
{
color = 4;
glyphname = q_strok;
layers = (
{
anchors = (
{
name = bottom_1;
position = "{264, 0}";
},
{
name = bottom_2;
position = "{792, 0}";
},
{
name = caret_1;
position = "{528, 0}";
},
{
name = top_1;
position = "{264, 400}";
},
{
name = top_2;
position = "{792, 400}";
}
);
components = (
{
name = q;
}
);
layerId = "03FD986C-C76B-4420-A04C-E6CCB975BB31";
paths = (
{
closed = 1;
nodes = (
"436 260 LINE",
"474 298 OFFCURVE",
"533 316 OFFCURVE",
"573 316 CURVE",
"613 316 OFFCURVE",
"675 307 OFFCURVE",
"675 244 CURVE",
"675 86 OFFCURVE",
"309 -108 OFFCURVE",
"116 -197 CURVE",
"115 -212 LINE",
"164 -234 LINE",
"337 -117 OFFCURVE",
"733 87 OFFCURVE",
"733 253 CURVE",
"733 327 OFFCURVE",
"660 393 OFFCURVE",
"585 393 CURVE",
"542 373 OFFCURVE",
"481 341 OFFCURVE",
"436 304 CURVE"
);
}
);
userData = {
com.schriftgestaltung.Glyphs.ComponentInfo = (
{
alignment = -1;
index = 0;
name = q;
}
);
com.schriftgestaltung.Glyphs.lastChange = "2019-03-21 16:55:23 +0000";
};
width = 738;
}
);
leftMetricsKey = q;
},
{
color = 4;
glyphname = r;
layers = (
{
anchors = (
{
name = bottom;
position = "{197, 0}";
},
{
name = top;
position = "{197, 400}";
}
);
layerId = "03FD986C-C76B-4420-A04C-E6CCB975BB31";
paths = (
{
closed = 1;
nodes = (
"176 280 LINE",
"194 282 OFFCURVE",
"261 409 OFFCURVE",
"310 411 CURVE",
"334 412 OFFCURVE",
"357 410 OFFCURVE",
"378 408 CURVE",
"364 314 LINE",
"343 317 OFFCURVE",
"310 320 OFFCURVE",
"297 320 CURVE",
"250 320 OFFCURVE",
"193 264 OFFCURVE",
"177 229 CURVE"
);
},
{
closed = 1;
nodes = (
"180 214 OFFCURVE",
"178 91 OFFCURVE",
"184 63 CURVE",
"189 40 OFFCURVE",
"197 40 OFFCURVE",
"248 18 CURVE",
"248 -7 LINE",
"177 5 OFFCURVE",
"92 1 OFFCURVE",
"33 -8 CURVE",
"33 17 LINE",
"81 33 OFFCURVE",
"94 43 OFFCURVE",
"97 68 CURVE",
"104 128 OFFCURVE",
"103 200 OFFCURVE",
"103 245 CURVE",
"103 321 OFFCURVE",
"75 343 OFFCURVE",
"30 352 CURVE",
"30 367 LINE",
"63 378 OFFCURVE",
"112 406 OFFCURVE",
"158 432 CURVE",
"173 425 LINE",
"173 426 OFFCURVE",
"177 358 OFFCURVE",
"180 279 CURVE"
);
}
);
userData = {
com.schriftgestaltung.Glyphs.lastChange = "2019-03-21 16:55:23 +0000";
com.typemytype.robofont.mark = (
0.6,
1,
0.929,
1
);
};
width = 383;
}
);
leftMetricsKey = n;
unicode = 0072;
},
{
color = 4;
glyphname = r_hook;
layers = (
{
components = (
{
name = r;
}
);
layerId = "03FD986C-C76B-4420-A04C-E6CCB975BB31";
paths = (
{
closed = 1;
nodes = (
"99 593 LINE",
"201 581 OFFCURVE",
"187 517 OFFCURVE",
"135 495 CURVE",
"148 478 LINE",
"208 495 OFFCURVE",
"322 637 OFFCURVE",
"133 673 CURVE"
);
}
);
userData = {
com.schriftgestaltung.Glyphs.lastChange = "2019-03-21 16:55:23 +0000";
};
width = 373;
}
);
},
{
color = 4;
glyphname = r_macr;
layers = (
{
anchors = (
{
name = _top;
position = "{207, 400}";
},
{
name = bottom;
position = "{300, 0}";
},
{
name = top;
position = "{300, 400}";
}
);
components = (
{
name = r;
}
);
layerId = "03FD986C-C76B-4420-A04C-E6CCB975BB31";
paths = (
{
closed = 1;
nodes = (
"58 519 LINE",
"140 615 LINE",
"248 604 OFFCURVE",
"276 631 OFFCURVE",
"339 695 CURVE",
"359 678 LINE",
"328 661 OFFCURVE",
"292 587 OFFCURVE",
"271 542 CURVE",
"170 548 OFFCURVE",
"150 560 OFFCURVE",
"71 506 CURVE"
);
}
);
userData = {
com.schriftgestaltung.Glyphs.ComponentInfo = (
{
alignment = -1;
index = 0;
name = r;
}
);
com.schriftgestaltung.Glyphs.lastChange = "2019-04-23 16:18:39 +0000";
};
width = 383;
}
);
leftMetricsKey = r;
rightMetricsKey = r;
},
{
color = 4;
glyphname = r_ra;
layers = (
{
components = (
{
name = r;
}
);
layerId = "03FD986C-C76B-4420-A04C-E6CCB975BB31";
paths = (
{
closed = 1;
nodes = (
"30 557 LINE",
"43 567 OFFCURVE",
"114 625 OFFCURVE",
"138 645 CURVE",
"165 630 OFFCURVE",
"197 613 OFFCURVE",
"223 600 CURVE",
"285 648 LINE",
"335 611 OFFCURVE",
"360 595 OFFCURVE",
"396 627 CURVE",
"419 614 LINE",
"391 585 OFFCURVE",
"363 555 OFFCURVE",
"328 525 CURVE",
"288 549 OFFCURVE",
"255 569 OFFCURVE",
"222 575 CURVE",
"189 560 OFFCURVE",
"159 536 OFFCURVE",
"144 527 CURVE",
"91 561 OFFCURVE",
"91 562 OFFCURVE",
"53 542 CURVE"
);
}
);
userData = {
com.schriftgestaltung.Glyphs.lastChange = "2019-04-23 16:18:42 +0000";
};
width = 424;
}
);
leftMetricsKey = r;
rightMetricsKey = r;
},
{
color = 4;
glyphname = s;
layers = (
{
anchors = (
{
name = bottom;
position = "{181, 0}";
},
{
name = top;
position = "{181, 400}";
}
);
layerId = "03FD986C-C76B-4420-A04C-E6CCB975BB31";
paths = (
{
closed = 1;
nodes = (
"319 331 OFFCURVE",
"302 312 OFFCURVE",
"287 286 CURVE",
"261 332 OFFCURVE",
"220 371 OFFCURVE",
"180 371 CURVE",
"143 371 OFFCURVE",
"117 348 OFFCURVE",
"117 317 CURVE",
"117 284 OFFCURVE",
"140 261 OFFCURVE",
"209 237 CURVE",
"298 206 OFFCURVE",
"328 177 OFFCURVE",
"328 117 CURVE",
"328 32 OFFCURVE",
"252 -10 OFFCURVE",
"182 -10 CURVE",
"143 -10 OFFCURVE",
"82 9 OFFCURVE",
"25 41 CURVE",
"89 106 LINE",
"119 75 OFFCURVE",
"154 32 OFFCURVE",
"207 32 CURVE",
"248 32 OFFCURVE",
"271 59 OFFCURVE",
"271 88 CURVE",
"270 139 OFFCURVE",
"222 152 OFFCURVE",
"159 175 CURVE",
"85 202 OFFCURVE",
"46 230 OFFCURVE",
"46 293 CURVE",
"46 368 OFFCURVE",
"112 410 OFFCURVE",
"201 410 CURVE",
"257 410 OFFCURVE",
"314 384 OFFCURVE",
"336 353 CURVE"
);
}
);
userData = {
com.schriftgestaltung.Glyphs.lastChange = "2019-04-24 16:49:01 +0000";
com.typemytype.robofont.mark = (
0.6,
1,
0.929,
1
);
};
width = 361;
}
);
unicode = 0073;
},
{
color = 4;
glyphname = s_ra;
layers = (
{
components = (
{
name = s;
transform = "{1, 0, 0, 1, 26, 0}";
}
);
layerId = "03FD986C-C76B-4420-A04C-E6CCB975BB31";
paths = (
{
closed = 1;
nodes = (
"25 522 LINE",
"37 532 OFFCURVE",
"107 590 OFFCURVE",
"130 610 CURVE",
"156 595 OFFCURVE",
"187 579 OFFCURVE",
"213 565 CURVE",
"274 613 LINE",
"322 576 OFFCURVE",
"347 560 OFFCURVE",
"382 592 CURVE",
"404 579 LINE",
"377 550 OFFCURVE",
"350 520 OFFCURVE",
"316 490 CURVE",
"276 514 OFFCURVE",
"244 534 OFFCURVE",
"212 540 CURVE",
"180 525 OFFCURVE",
"150 501 OFFCURVE",
"136 492 CURVE",
"84 526 OFFCURVE",
"84 527 OFFCURVE",
"47 507 CURVE"
);
}
);
userData = {
com.schriftgestaltung.Glyphs.lastChange = "2019-04-23 17:35:42 +0000";
};
width = 429;
}
);
leftMetricsKey = s;
rightMetricsKey = s;
},
{
color = 4;
glyphname = longs;
layers = (
{
anchors = (
{
name = bottom;
position = "{248, 0}";
},
{
name = top;
position = "{248, 400}";
}
);
layerId = "03FD986C-C76B-4420-A04C-E6CCB975BB31";
paths = (
{
closed = 1;
nodes = (
"104 391 LINE",
"175 346 LINE",
"46 328 LINE",
"46 347 LINE"
);
},
{
closed = 1;
nodes = (
"180 385 OFFCURVE",
"185 91 OFFCURVE",
"191 63 CURVE",
"196 40 OFFCURVE",
"204 40 OFFCURVE",
"285 18 CURVE",
"285 -7 LINE",
"184 5 OFFCURVE",
"99 1 OFFCURVE",
"20 -8 CURVE",
"20 17 LINE",
"88 33 OFFCURVE",
"101 43 OFFCURVE",
"104 68 CURVE",
"111 128 OFFCURVE",
"101 451 OFFCURVE",
"100 517 CURVE",
"99 632 OFFCURVE",
"161 710 OFFCURVE",
"279 710 CURVE",
"319 710 OFFCURVE",
"368 702 OFFCURVE",
"402 694 CURVE",
"390 668 OFFCURVE",
"375 636 OFFCURVE",
"364 612 CURVE",
"324 633 OFFCURVE",
"267 656 OFFCURVE",
"216 666 CURVE",
"184 626 OFFCURVE",
"180 575 OFFCURVE",
"180 488 CURVE"
);
}
);
userData = {
com.schriftgestaltung.Glyphs.lastChange = "2019-03-19 10:32:43 +0000";
com.typemytype.robofont.mark = (
1,
0.6,
0.6,
1
);
};
width = 322;
}
);
unicode = 017F;
},
{
color = 4;
glyphname = longs_i;
layers = (
{
anchors = (
{
name = bottom;
position = "{166, 0}";
},
{
name = top;
position = "{166, 400}";
}
);
layerId = "03FD986C-C76B-4420-A04C-E6CCB975BB31";
paths = (
{
closed = 1;
nodes = (
"408 204 OFFCURVE",
"406 91 OFFCURVE",
"412 63 CURVE",
"417 40 OFFCURVE",
"425 40 OFFCURVE",
"476 18 CURVE",
"476 -7 LINE",
"405 5 OFFCURVE",
"320 1 OFFCURVE",
"271 -8 CURVE",
"271 17 LINE",
"309 33 OFFCURVE",
"322 43 OFFCURVE",
"325 68 CURVE",
"332 128 OFFCURVE",
"331 200 OFFCURVE",
"331 265 CURVE",
"331 341 OFFCURVE",
"303 333 OFFCURVE",
"258 342 CURVE",
"258 357 LINE",
"291 368 OFFCURVE",
"360 391 OFFCURVE",
"406 412 CURVE",
"421 405 LINE",
"421 406 OFFCURVE",
"408 348 OFFCURVE",
"408 259 CURVE"
);
},
{
closed = 1;
nodes = (
"82 391 LINE",
"153 346 LINE",
"24 328 LINE",
"24 347 LINE"
);
},
{
closed = 1;
nodes = (
"158 385 OFFCURVE",
"163 91 OFFCURVE",
"169 63 CURVE",
"174 40 OFFCURVE",
"182 40 OFFCURVE",
"225 18 CURVE",
"225 -7 LINE",
"162 5 OFFCURVE",
"77 1 OFFCURVE",
"20 -8 CURVE",
"20 17 LINE",
"66 33 OFFCURVE",
"79 43 OFFCURVE",
"82 68 CURVE",
"89 128 OFFCURVE",
"79 451 OFFCURVE",
"78 517 CURVE",
"76 632 OFFCURVE",
"139 710 OFFCURVE",
"257 710 CURVE",
"297 710 OFFCURVE",
"357 693 OFFCURVE",
"391 685 CURVE",
"379 659 OFFCURVE",
"364 627 OFFCURVE",
"353 603 CURVE",
"313 624 OFFCURVE",
"245 656 OFFCURVE",
"194 666 CURVE",
"162 626 OFFCURVE",
"158 575 OFFCURVE",
"158 488 CURVE"
);
}
);
userData = {
com.schriftgestaltung.Glyphs.lastChange = "2019-03-19 10:32:45 +0000";
};
width = 491;
}
);
leftMetricsKey = longs;
rightMetricsKey = i;
unicode = EBA2;
},
{
color = 4;
glyphname = longs_longs;
layers = (
{
anchors = (
{
name = bottom_1;
position = "{262, 0}";
},
{
name = bottom_2;
position = "{787, 0}";
},
{
name = caret_1;
position = "{524, 0}";
},
{
name = top_1;
position = "{262, 400}";
},
{
name = top_2;
position = "{787, 400}";
}
);
layerId = "03FD986C-C76B-4420-A04C-E6CCB975BB31";
paths = (
{
closed = 1;
nodes = (
"118 388 LINE",
"189 346 LINE",
"20 328 LINE",
"20 351 LINE"
);
},
{
closed = 1;
nodes = (
"194 425 OFFCURVE",
"199 91 OFFCURVE",
"205 63 CURVE",
"210 40 OFFCURVE",
"218 40 OFFCURVE",
"269 18 CURVE",
"269 -7 LINE",
"198 5 OFFCURVE",
"113 1 OFFCURVE",
"54 -8 CURVE",
"54 17 LINE",
"102 33 OFFCURVE",
"115 43 OFFCURVE",
"118 68 CURVE",
"125 128 OFFCURVE",
"114 431 OFFCURVE",
"114 487 CURVE",
"113 603 OFFCURVE",
"175 682 OFFCURVE",
"292 688 CURVE",
"353 691 OFFCURVE",
"426 671 OFFCURVE",
"460 656 CURVE",
"448 630 OFFCURVE",
"441 608 OFFCURVE",
"430 577 CURVE",
"412 568 LINE",
"381 624 OFFCURVE",
"326 641 OFFCURVE",
"285 641 CURVE",
"235 641 OFFCURVE",
"194 606 OFFCURVE",
"194 518 CURVE"
);
},
{
closed = 1;
nodes = (
"481 445 OFFCURVE",
"486 91 OFFCURVE",
"492 63 CURVE",
"497 40 OFFCURVE",
"505 40 OFFCURVE",
"566 18 CURVE",
"566 -7 LINE",
"485 5 OFFCURVE",
"400 1 OFFCURVE",
"341 -8 CURVE",
"341 17 LINE",
"389 33 OFFCURVE",
"402 43 OFFCURVE",
"405 68 CURVE",
"412 128 OFFCURVE",
"402 451 OFFCURVE",
"401 517 CURVE",
"399 633 OFFCURVE",
"462 711 OFFCURVE",
"580 711 CURVE",
"620 711 OFFCURVE",
"669 707 OFFCURVE",
"703 693 CURVE",
"691 667 OFFCURVE",
"676 637 OFFCURVE",
"665 613 CURVE",
"655 615 LINE",
"655 615 OFFCURVE",
"613 667 OFFCURVE",
"564 667 CURVE",
"522 667 OFFCURVE",
"481 636 OFFCURVE",
"481 548 CURVE"
);
}
);
userData = {
com.schriftgestaltung.Glyphs.lastChange = "2019-03-11 19:27:02 +0000";
};
width = 623;
}
);
leftMetricsKey = longs;
rightMetricsKey = f;
unicode = EBA6;
},
{
color = 4;
glyphname = longs_strok;
layers = (
{
components = (
{
name = longs;
}
);
layerId = "03FD986C-C76B-4420-A04C-E6CCB975BB31";
paths = (
{
closed = 1;
nodes = (
"161 365 LINE",
"291 416 LINE",
"329 392 OFFCURVE",
"374 369 OFFCURVE",
"374 325 CURVE",
"374 240 OFFCURVE",
"145 128 OFFCURVE",
"21 60 CURVE",
"20 99 LINE",
"127 143 OFFCURVE",
"305 227 OFFCURVE",
"305 300 CURVE",
"305 324 OFFCURVE",
"286 359 OFFCURVE",
"251 359 CURVE",
"219 359 OFFCURVE",
"206 353 OFFCURVE",
"175 350 CURVE"
);
}
);
userData = {
com.schriftgestaltung.Glyphs.lastChange = "2019-03-11 19:27:02 +0000";
};
width = 416;
}
);
},
{
color = 4;
glyphname = longs_t;
layers = (
{
anchors = (
{
name = bottom;
position = "{242, 0}";
},
{
name = caret_1;
position = "{365, 0}";
},
{
name = center;
position = "{456, 200}";
},
{
name = top;
position = "{242, 400}";
},
{
name = topright;
position = "{601, 400}";
}
);
layerId = "03FD986C-C76B-4420-A04C-E6CCB975BB31";
paths = (
{
closed = 1;
nodes = (
"20 328 LINE",
"20 351 LINE",
"97 388 LINE",
"94 517 LINE SMOOTH",
"93 633 OFFCURVE",
"145 711 OFFCURVE",
"273 711 CURVE",
"353 711 OFFCURVE",
"423 676 OFFCURVE",
"423 571 CURVE",
"423 559 OFFCURVE",
"423 432 OFFCURVE",
"423 400 CURVE",
"516 402 OFFCURVE",
"566 403 OFFCURVE",
"604 411 CURVE",
"611 406 LINE",
"582 326 LINE",
"529 333 OFFCURVE",
"475 336 OFFCURVE",
"422 335 CURVE",
"421 125 LINE SMOOTH",
"421 80 OFFCURVE",
"437 58 OFFCURVE",
"482 56 CURVE",
"502 55 OFFCURVE",
"552 57 OFFCURVE",
"588 75 CURVE",
"599 58 LINE",
"599 58 OFFCURVE",
"524 -10 OFFCURVE",
"461 -10 CURVE",
"355 -10 OFFCURVE",
"344 53 OFFCURVE",
"345 87 CURVE",
"349 288 LINE SMOOTH",
"350 333 OFFCURVE",
"345 343 OFFCURVE",
"296 362 CURVE",
"296 378 LINE",
"354 396 LINE",
"357 442 OFFCURVE",
"355 517 OFFCURVE",
"352 554 CURVE",
"347 619 OFFCURVE",
"329 669 OFFCURVE",
"261 669 CURVE",
"209 669 OFFCURVE",
"174 636 OFFCURVE",
"174 548 CURVE",
"174 445 OFFCURVE",
"179 91 OFFCURVE",
"185 63 CURVE",
"190 40 OFFCURVE",
"198 40 OFFCURVE",
"249 18 CURVE",
"249 -7 LINE",
"178 5 OFFCURVE",
"93 1 OFFCURVE",
"34 -8 CURVE",
"34 17 LINE",
"82 33 OFFCURVE",
"95 43 OFFCURVE",
"98 68 CURVE",
"102 103 OFFCURVE",
"100 228 OFFCURVE",
"98 338 CURVE"
);
}
);
userData = {
com.schriftgestaltung.Glyphs.lastChange = "2019-03-19 10:32:50 +0000";
com.typemytype.robofont.mark = (
0.6,
1,
0.929,
1
);
};
width = 611;
}
);
leftMetricsKey = longs;
rightMetricsKey = t;
unicode = FB05;
},
{
color = 4;
glyphname = longs_z;
layers = (
{
anchors = (
{
name = bottom_1;
position = "{200, 0}";
},
{
name = bottom_2;
position = "{599, 0}";
},
{
name = caret_1;
position = "{399.5, 0}";
},
{
name = top_1;
position = "{200, 400}";
},
{
name = top_2;
position = "{599, 400}";
}
);
components = (
{
name = longs;
}
);
layerId = "03FD986C-C76B-4420-A04C-E6CCB975BB31";
paths = (
{
closed = 1;
nodes = (
"345 483 OFFCURVE",
"386 458 OFFCURVE",
"383 398 CURVE",
"380 344 OFFCURVE",
"303 314 OFFCURVE",
"277 298 CURVE",
"319 302 OFFCURVE",
"374 284 OFFCURVE",
"374 230 CURVE",
"374 140 OFFCURVE",
"234 87 OFFCURVE",
"181 70 CURVE",
"171 96 LINE",
"225 109 OFFCURVE",
"309 152 OFFCURVE",
"309 215 CURVE",
"309 250 OFFCURVE",
"258 272 OFFCURVE",
"175 241 CURVE",
"168 259 LINE",
"237 301 OFFCURVE",
"312 334 OFFCURVE",
"312 383 CURVE",
"312 430 OFFCURVE",
"255 459 OFFCURVE",
"157 388 CURVE",
"146 406 LINE",
"192 429 OFFCURVE",
"235 483 OFFCURVE",
"290 483 CURVE"
);
}
);
userData = {
com.schriftgestaltung.Glyphs.lastChange = "2019-03-19 10:33:48 +0000";
};
width = 427;
}
);
leftMetricsKey = longs;
},
{
color = 4;
glyphname = t;
layers = (
{
anchors = (
{
name = bottom;
position = "{170, 0}";
},
{
name = center;
position = "{170, 200}";
},
{
name = top;
position = "{170, 400}";
},
{
name = topright;
position = "{315, 400}";
}
);
layerId = "03FD986C-C76B-4420-A04C-E6CCB975BB31";
paths = (
{
closed = 1;
nodes = (
"129 399 LINE",
"233 402 OFFCURVE",
"288 402 OFFCURVE",
"328 411 CURVE",
"335 406 LINE",
"306 326 LINE",
"247 334 OFFCURVE",
"188 337 OFFCURVE",
"129 335 CURVE"
);
},
{
closed = 1;
nodes = (
"146 341 LINE",
"145 125 LINE SMOOTH",
"145 80 OFFCURVE",
"161 58 OFFCURVE",
"206 56 CURVE",
"226 55 OFFCURVE",
"276 57 OFFCURVE",
"312 75 CURVE",
"323 58 LINE",
"323 58 OFFCURVE",
"248 -10 OFFCURVE",
"185 -10 CURVE",
"79 -10 OFFCURVE",
"68 53 OFFCURVE",
"69 87 CURVE",
"73 288 LINE SMOOTH",
"74 333 OFFCURVE",
"69 343 OFFCURVE",
"20 362 CURVE",
"20 378 LINE",
"67 421 OFFCURVE",
"88 447 OFFCURVE",
"136 519 CURVE",
"154 517 LINE",
"145 474 OFFCURVE",
"142 432 OFFCURVE",
"141 389 CURVE"
);
}
);
userData = {
com.schriftgestaltung.Glyphs.lastChange = "2019-03-11 19:27:02 +0000";
com.typemytype.robofont.mark = (
1,
0.6,
0.6,
1
);
};
width = 335;
}
);
unicode = 0074;
},
{
color = 4;
glyphname = t_acute;
layers = (
{
anchors = (
{
name = bottom;
position = "{300, 0}";
},
{
name = center;
position = "{300, 200}";
},
{
name = top;
position = "{300, 400}";
},
{
name = topright;
position = "{580, 400}";
}
);
components = (
{
name = t;
}
);
layerId = "03FD986C-C76B-4420-A04C-E6CCB975BB31";
paths = (
{
closed = 1;
nodes = (
"252 723 LINE",
"238 700 LINE",
"198 702 LINE",
"161 661 OFFCURVE",
"264 642 OFFCURVE",
"264 605 CURVE",
"264 584 OFFCURVE",
"233 558 OFFCURVE",
"213 535 CURVE",
"175 542 OFFCURVE",
"78 541 OFFCURVE",
"53 532 CURVE",
"45 542 LINE",
"57 553 OFFCURVE",
"92 594 OFFCURVE",
"131 594 CURVE",
"161 594 OFFCURVE",
"178 592 OFFCURVE",
"202 587 CURVE",
"225 619 OFFCURVE",
"103 664 OFFCURVE",
"103 693 CURVE",
"103 706 OFFCURVE",
"117 718 OFFCURVE",
"138 734 CURVE"
);
}
);
userData = {
com.schriftgestaltung.Glyphs.lastChange = "2019-04-23 17:33:46 +0000";
};
width = 330;
}
);
unicode = E6E2;
},
{
color = 4;
glyphname = t_hook;
layers = (
{
anchors = (
{
name = _top;
position = "{170, 400}";
},
{
name = top;
position = "{170, 716}";
}
);
components = (
{
name = t;
}
);
layerId = "03FD986C-C76B-4420-A04C-E6CCB975BB31";
paths = (
{
closed = 1;
nodes = (
"113 649 LINE",
"214 627 OFFCURVE",
"184 577 OFFCURVE",
"130 560 CURVE",
"141 542 LINE",
"203 552 OFFCURVE",
"339 661 OFFCURVE",
"154 716 CURVE"
);
}
);
userData = {
com.schriftgestaltung.Glyphs.lastChange = "2019-03-11 19:27:02 +0000";
};
width = 335;
}
);
},
{
color = 4;
glyphname = t_ra;
layers = (
{
components = (
{
name = t;
transform = "{1, 0, 0, 1, 16, 0}";
}
);
layerId = "03FD986C-C76B-4420-A04C-E6CCB975BB31";
paths = (
{
closed = 1;
nodes = (
"20 630 LINE",
"32 640 OFFCURVE",
"101 696 OFFCURVE",
"125 715 CURVE",
"151 701 OFFCURVE",
"182 684 OFFCURVE",
"207 672 CURVE",
"268 718 LINE",
"316 682 OFFCURVE",
"341 667 OFFCURVE",
"375 698 CURVE",
"398 685 LINE",
"371 657 OFFCURVE",
"343 628 OFFCURVE",
"309 599 CURVE",
"270 622 OFFCURVE",
"238 642 OFFCURVE",
"206 647 CURVE",
"174 633 OFFCURVE",
"145 610 OFFCURVE",
"131 601 CURVE",
"79 634 OFFCURVE",
"79 635 OFFCURVE",
"42 615 CURVE"
);
}
);
userData = {
com.schriftgestaltung.Glyphs.lastChange = "2019-04-23 17:34:04 +0000";
};
width = 398;
}
);
leftMetricsKey = t;
rightMetricsKey = t;
},
{
color = 4;
glyphname = u;
layers = (
{
anchors = (
{
name = bottom;
position = "{273, 0}";
},
{
name = ogonek;
position = "{481, 10}";
},
{
name = top;
position = "{273, 400}";
},
{
name = topright;
position = "{513, 400}";
}
);
layerId = "03FD986C-C76B-4420-A04C-E6CCB975BB31";
paths = (
{
closed = 1;
nodes = (
"370 64 LINE",
"292 21 OFFCURVE",
"224 -11 OFFCURVE",
"195 -11 CURVE",
"104 -11 OFFCURVE",
"88 32 OFFCURVE",
"88 80 CURVE",
"88 162 OFFCURVE",
"87 249 OFFCURVE",
"87 301 CURVE",
"87 333 OFFCURVE",
"76 349 OFFCURVE",
"30 360 CURVE",
"30 385 LINE",
"101 400 OFFCURVE",
"125 411 OFFCURVE",
"167 428 CURVE",
"180 416 LINE",
"172 384 OFFCURVE",
"168 351 OFFCURVE",
"168 325 CURVE",
"168 272 OFFCURVE",
"167 188 OFFCURVE",
"167 135 CURVE",
"167 87 OFFCURVE",
"172 53 OFFCURVE",
"239 53 CURVE",
"271 53 OFFCURVE",
"324 67 OFFCURVE",
"364 98 CURVE"
);
},
{
closed = 1;
nodes = (
"377 -10 OFFCURVE",
"362 39 OFFCURVE",
"362 117 CURVE",
"362 305 LINE SMOOTH",
"362 336 OFFCURVE",
"355 354 OFFCURVE",
"292 372 CURVE",
"295 399 LINE",
"355 403 OFFCURVE",
"410 406 OFFCURVE",
"447 423 CURVE",
"459 411 LINE",
"443 350 OFFCURVE",
"442 310 OFFCURVE",
"442 277 CURVE",
"442 109 LINE SMOOTH",
"442 72 OFFCURVE",
"478 53 OFFCURVE",
"519 67 CURVE",
"530 49 LINE",
"504 24 OFFCURVE",
"476 6 OFFCURVE",
"452 -10 CURVE"
);
}
);
userData = {
com.schriftgestaltung.Glyphs.lastChange = "2019-03-19 10:20:51 +0000";
com.typemytype.robofont.mark = (
0.6,
1,
0.929,
1
);
};
width = 535;
}
);
leftMetricsKey = n;
unicode = 0075;
},
{
color = 4;
glyphname = u_macr;
layers = (
{
anchors = (
{
name = _top;
position = "{280, 400}";
},
{
name = bottom;
position = "{300, 0}";
},
{
name = ogonek;
position = "{540, 10}";
},
{
name = top;
position = "{300, 400}";
},
{
name = topright;
position = "{580, 400}";
}
);
components = (
{
name = u;
}
);
layerId = "03FD986C-C76B-4420-A04C-E6CCB975BB31";
paths = (
{
closed = 1;
nodes = (
"104 502 LINE",
"203 618 LINE",
"334 605 OFFCURVE",
"368 638 OFFCURVE",
"444 715 CURVE",
"468 694 LINE",
"431 674 OFFCURVE",
"387 584 OFFCURVE",
"362 530 CURVE",
"239 537 OFFCURVE",
"215 552 OFFCURVE",
"120 486 CURVE"
);
}
);
userData = {
com.schriftgestaltung.Glyphs.ComponentInfo = (
{
alignment = -1;
index = 0;
name = u;
}
);
com.schriftgestaltung.Glyphs.lastChange = "2019-04-23 17:34:21 +0000";
};
width = 520;
}
);
unicode = 016B;
},
{
color = 4;
glyphname = v;
layers = (
{
anchors = (
{
name = bottom;
position = "{214, 0}";
},
{
name = top;
position = "{214, 400}";
}
);
layerId = "03FD986C-C76B-4420-A04C-E6CCB975BB31";
paths = (
{
closed = 1;
nodes = (
"281 400 LINE",
"328 400 OFFCURVE",
"420 400 OFFCURVE",
"422 400 CURVE",
"422 377 LINE",
"381 331 OFFCURVE",
"249 39 OFFCURVE",
"237 0 CURVE",
"197 0 LINE",
"178 72 OFFCURVE",
"42 331 OFFCURVE",
"5 376 CURVE",
"5 400 LINE",
"187 400 LINE",
"187 375 LINE",
"141 355 OFFCURVE",
"117 351 OFFCURVE",
"134 314 CURVE",
"239 92 LINE",
"334 319 LINE SMOOTH",
"345 345 OFFCURVE",
"341 360 OFFCURVE",
"281 375 CURVE"
);
}
);
userData = {
com.schriftgestaltung.Glyphs.lastChange = "2019-03-11 19:27:02 +0000";
com.typemytype.robofont.mark = (
1,
0.6,
0.6,
1
);
};
width = 427;
}
);
unicode = 0076;
},
{
color = 4;
glyphname = w;
layers = (
{
layerId = "03FD986C-C76B-4420-A04C-E6CCB975BB31";
paths = (
{
closed = 1;
nodes = (
"432 0 LINE",
"420 45 OFFCURVE",
"295 327 OFFCURVE",
"250 376 CURVE",
"250 400 LINE",
"261 400 LINE",
"402 400 LINE",
"432 400 LINE",
"432 375 LINE",
"386 355 OFFCURVE",
"363 351 OFFCURVE",
"379 314 CURVE",
"474 92 LINE",
"559 319 LINE SMOOTH",
"569 345 OFFCURVE",
"566 360 OFFCURVE",
"506 375 CURVE",
"506 400 LINE",
"647 400 LINE",
"647 377 LINE",
"606 331 OFFCURVE",
"484 39 OFFCURVE",
"472 0 CURVE"
);
},
{
closed = 1;
nodes = (
"307 308 LINE",
"332 260 LINE",
"285 158 OFFCURVE",
"234 25 OFFCURVE",
"227 0 CURVE",
"187 0 LINE",
"168 72 OFFCURVE",
"42 331 OFFCURVE",
"5 376 CURVE",
"5 400 LINE",
"187 400 LINE",
"187 375 LINE",
"141 355 OFFCURVE",
"118 351 OFFCURVE",
"134 314 CURVE",
"229 92 LINE"
);
}
);
userData = {
com.schriftgestaltung.Glyphs.lastChange = "2019-03-12 17:26:32 +0000";
};
width = 652;
}
);
unicode = 0077;
},
{
color = 4;
glyphname = x;
layers = (
{
anchors = (
{
name = bottom;
position = "{241, 0}";
},
{
name = top;
position = "{241, 400}";
}
);
layerId = "03FD986C-C76B-4420-A04C-E6CCB975BB31";
paths = (
{
closed = 1;
nodes = (
"251 239 LINE",
"272 211 LINE",
"365 306 LINE SMOOTH",
"396 338 OFFCURVE",
"417 355 OFFCURVE",
"447 373 CURVE",
"447 400 LINE",
"336 400 LINE",
"339 364 OFFCURVE",
"327 335 OFFCURVE",
"310 313 CURVE"
);
},
{
closed = 1;
nodes = (
"220 208 LINE",
"186 168 OFFCURVE",
"141 125 OFFCURVE",
"124 109 CURVE",
"89 77 OFFCURVE",
"61 43 OFFCURVE",
"5 25 CURVE",
"5 0 LINE",
"134 1 LINE",
"135 27 OFFCURVE",
"148 55 OFFCURVE",
"165 77 CURVE",
"176 91 OFFCURVE",
"223 153 OFFCURVE",
"244 182 CURVE"
);
},
{
closed = 1;
nodes = (
"305 77 LINE SMOOTH",
"333 43 OFFCURVE",
"327 20 OFFCURVE",
"325 0 CURVE",
"477 0 LINE",
"477 25 LINE",
"417 47 OFFCURVE",
"217 297 OFFCURVE",
"154 400 CURVE",
"15 400 LINE",
"15 375 LINE",
"57 365 OFFCURVE",
"100 327 OFFCURVE",
"138 280 CURVE"
);
}
);
userData = {
com.schriftgestaltung.Glyphs.lastChange = "2019-03-11 19:27:02 +0000";
com.typemytype.robofont.mark = (
1,
0.6,
0.6,
1
);
};
width = 482;
}
);
unicode = 0078;
},
{
color = 4;
glyphname = y;
layers = (
{
anchors = (
{
name = bottom;
position = "{214, 0}";
},
{
name = top;
position = "{214, 400}";
}
);
layerId = "03FD986C-C76B-4420-A04C-E6CCB975BB31";
paths = (
{
closed = 1;
nodes = (
"223 26 LINE",
"172 -81 LINE",
"161 -22 OFFCURVE",
"43 329 OFFCURVE",
"5 376 CURVE",
"5 400 LINE",
"176 400 LINE",
"176 375 LINE",
"130 355 OFFCURVE",
"110 351 OFFCURVE",
"123 314 CURVE"
);
},
{
closed = 1;
nodes = (
"70 -235 LINE",
"123 -178 OFFCURVE",
"291 188 OFFCURVE",
"337 319 CURVE",
"345 343 OFFCURVE",
"345 360 OFFCURVE",
"281 375 CURVE",
"281 400 LINE",
"422 400 LINE",
"422 377 LINE",
"396 348 OFFCURVE",
"184 -123 OFFCURVE",
"141 -250 CURVE",
"68 -250 LINE"
);
}
);
userData = {
com.schriftgestaltung.Glyphs.lastChange = "2019-03-11 19:27:02 +0000";
com.typemytype.robofont.mark = (
1,
0.6,
0.6,
1
);
};
width = 427;
}
);
unicode = 0079;
},
{
color = 4;
glyphname = z;
layers = (
{
layerId = "03FD986C-C76B-4420-A04C-E6CCB975BB31";
paths = (
{
closed = 1;
nodes = (
"77 258 LINE",
"43 263 LINE",
"113 432 LINE",
"145 428 LINE",
"133 398 LINE",
"588 398 LINE",
"587 357 LINE",
"420 294 OFFCURVE",
"269 157 OFFCURVE",
"114 64 CURVE",
"526 74 LINE",
"533 103 LINE",
"564 101 LINE",
"536 -49 LINE",
"505 -47 LINE",
"512 1 LINE",
"349 3 OFFCURVE",
"162 0 OFFCURVE",
"29 -9 CURVE",
"25 44 LINE",
"427 324 LINE",
"105 321 LINE"
);
}
);
userData = {
com.schriftgestaltung.Glyphs.lastChange = "2019-04-24 16:49:01 +0000";
};
width = 613;
}
);
unicode = 007A;
},
{
color = 10;
glyphname = ampersand;
layers = (
{
layerId = "03FD986C-C76B-4420-A04C-E6CCB975BB31";
paths = (
{
closed = 1;
nodes = (
"245 388 LINE",
"129 331 LINE",
"74 294 OFFCURVE",
"31 235 OFFCURVE",
"30 165 CURVE",
"29 49 OFFCURVE",
"111 -9 OFFCURVE",
"216 -9 CURVE",
"374 -9 OFFCURVE",
"577 275 OFFCURVE",
"659 375 CURVE",
"727 458 OFFCURVE",
"718 462 OFFCURVE",
"769 492 CURVE",
"766 513 LINE",
"713 509 OFFCURVE",
"701 509 OFFCURVE",
"648 513 CURVE",
"646 491 LINE",
"672 474 OFFCURVE",
"668 443 OFFCURVE",
"630 393 CURVE",
"529 260 OFFCURVE",
"368 69 OFFCURVE",
"270 69 CURVE",
"166 69 OFFCURVE",
"107 120 OFFCURVE",
"108 192 CURVE",
"109 266 OFFCURVE",
"160 327 OFFCURVE",
"271 361 CURVE"
);
},
{
closed = 1;
nodes = (
"289 380 LINE",
"371 411 OFFCURVE",
"414 487 OFFCURVE",
"414 536 CURVE",
"414 601 OFFCURVE",
"355 637 OFFCURVE",
"316 647 CURVE",
"285 647 OFFCURVE",
"247 644 OFFCURVE",
"204 626 CURVE",
"156 606 OFFCURVE",
"122 569 OFFCURVE",
"122 511 CURVE",
"122 457 OFFCURVE",
"150 410 OFFCURVE",
"205 372 CURVE",
"429 308 OFFCURVE",
"502 129 OFFCURVE",
"579 26 CURVE",
"606 -11 OFFCURVE",
"667 -26 OFFCURVE",
"714 -16 CURVE",
"722 22 OFFCURVE",
"728 63 OFFCURVE",
"747 101 CURVE",
"729 111 LINE",
"708 91 OFFCURVE",
"704 88 OFFCURVE",
"690 81 CURVE",
"668 84 OFFCURVE",
"638 99 OFFCURVE",
"611 132 CURVE",
"538 221 OFFCURVE",
"462 361 OFFCURVE",
"321 413 CURVE",
"247 430 OFFCURVE",
"180 469 OFFCURVE",
"180 526 CURVE",
"180 566 OFFCURVE",
"201 593 OFFCURVE",
"237 604 CURVE",
"282 611 OFFCURVE",
"353 583 OFFCURVE",
"353 509 CURVE",
"353 460 OFFCURVE",
"325 420 OFFCURVE",
"259 398 CURVE"
);
}
);
userData = {
com.schriftgestaltung.Glyphs.lastChange = "2019-03-19 11:09:59 +0000";
};
width = 789;
}
);
unicode = 0026;
},
{
color = 10;
glyphname = con;
layers = (
{
anchors = (
{
name = bottom;
position = "{183, 0}";
},
{
name = top;
position = "{183, 400}";
}
);
layerId = "03FD986C-C76B-4420-A04C-E6CCB975BB31";
paths = (
{
closed = 1;
nodes = (
"-70 365 LINE",
"-68 370 LINE",
"-19 390 OFFCURVE",
"78 411 OFFCURVE",
"112 411 CURVE",
"199 411 OFFCURVE",
"341 325 OFFCURVE",
"341 182 CURVE",
"341 88 OFFCURVE",
"270 19 OFFCURVE",
"148 -11 CURVE",
"87 -3 OFFCURVE",
"17 13 OFFCURVE",
"-32 23 CURVE",
"-32 56 LINE",
"-14 51 OFFCURVE",
"21 43 OFFCURVE",
"53 43 CURVE",
"144 43 OFFCURVE",
"256 110 OFFCURVE",
"256 198 CURVE",
"256 271 OFFCURVE",
"231 327 OFFCURVE",
"175 356 CURVE",
"135 356 OFFCURVE",
"62 316 OFFCURVE",
"19 299 CURVE"
);
}
);
userData = {
com.schriftgestaltung.Glyphs.lastChange = "2019-03-19 10:42:28 +0000";
};
width = 366;
}
);
unicode = A76F;
},
{
color = 10;
glyphname = etfin;
layers = (
{
layerId = "03FD986C-C76B-4420-A04C-E6CCB975BB31";
paths = (
{
closed = 1;
nodes = (
"44 346 LINE",
"56 327 LINE",
"110 351 OFFCURVE",
"189 337 OFFCURVE",
"189 262 CURVE",
"189 188 OFFCURVE",
"91 107 OFFCURVE",
"43 49 CURVE",
"56 30 LINE",
"119 60 OFFCURVE",
"198 -13 OFFCURVE",
"198 -99 CURVE",
"198 -215 OFFCURVE",
"72 -250 OFFCURVE",
"22 -213 CURVE",
"5 -240 LINE",
"40 -257 OFFCURVE",
"77 -260 OFFCURVE",
"102 -260 CURVE",
"177 -260 OFFCURVE",
"286 -178 OFFCURVE",
"286 -70 CURVE",
"286 26 OFFCURVE",
"209 85 OFFCURVE",
"134 95 CURVE",
"149 127 OFFCURVE",
"291 221 OFFCURVE",
"291 319 CURVE",
"291 379 OFFCURVE",
"229 404 OFFCURVE",
"172 412 CURVE"
);
}
);
userData = {
com.schriftgestaltung.Glyphs.lastChange = "2019-03-19 10:45:13 +0000";
};
width = 301;
}
);
unicode = A76B;
},
{
color = 10;
glyphname = rum;
layers = (
{
layerId = "03FD986C-C76B-4420-A04C-E6CCB975BB31";
paths = (
{
closed = 1;
nodes = (
"460 -4 LINE",
"36 -4 LINE",
"36 22 LINE",
"107 116 OFFCURVE",
"162 194 OFFCURVE",
"162 271 CURVE",
"162 338 OFFCURVE",
"99 361 OFFCURVE",
"35 329 CURVE",
"21 348 LINE",
"21 348 OFFCURVE",
"68 403 OFFCURVE",
"129 403 CURVE",
"198 403 OFFCURVE",
"240 367 OFFCURVE",
"235 306 CURVE",
"230 247 OFFCURVE",
"158 155 OFFCURVE",
"114 75 CURVE",
"176 75 OFFCURVE",
"284 76 OFFCURVE",
"506 76 CURVE",
"506 56 LINE"
);
},
{
closed = 1;
nodes = (
"255 -267 LINE",
"255 -250 LINE",
"301 -226 OFFCURVE",
"318 -193 OFFCURVE",
"318 -97 CURVE",
"318 -96 OFFCURVE",
"318 56 OFFCURVE",
"322 134 CURVE",
"327 227 OFFCURVE",
"299 406 OFFCURVE",
"422 404 CURVE",
"484 403 OFFCURVE",
"506 360 OFFCURVE",
"535 301 CURVE",
"518 288 LINE",
"484 311 OFFCURVE",
"455 316 OFFCURVE",
"436 316 CURVE",
"355 316 OFFCURVE",
"362 156 OFFCURVE",
"362 75 CURVE",
"363 -104 LINE SMOOTH",
"364 -206 OFFCURVE",
"328 -247 OFFCURVE",
"304 -282 CURVE"
);
}
);
userData = {
com.schriftgestaltung.Glyphs.lastChange = "2019-03-19 11:05:07 +0000";
com.typemytype.robofont.mark = (
1,
0.6,
0.6,
1
);
};
width = 471;
}
);
},
{
color = 10;
glyphname = usmod;
layers = (
{
layerId = "03FD986C-C76B-4420-A04C-E6CCB975BB31";
paths = (
{
closed = 1;
nodes = (
"10 628 OFFCURVE",
"85 712 OFFCURVE",
"183 712 CURVE",
"294 712 OFFCURVE",
"350 646 OFFCURVE",
"350 537 CURVE",
"350 415 OFFCURVE",
"223 221 OFFCURVE",
"105 2 CURVE",
"32 0 LINE",
"32 24 LINE",
"200 214 OFFCURVE",
"267 400 OFFCURVE",
"267 505 CURVE",
"267 591 OFFCURVE",
"234 669 OFFCURVE",
"157 669 CURVE",
"102 669 OFFCURVE",
"80 617 OFFCURVE",
"80 557 CURVE",
"80 452 OFFCURVE",
"165 400 OFFCURVE",
"260 428 CURVE",
"261 395 LINE",
"114 365 OFFCURVE",
"10 412 OFFCURVE",
"10 530 CURVE"
);
}
);
userData = {
com.schriftgestaltung.Glyphs.lastChange = "2018-12-20 10:12:20 +0000";
};
width = 365;
}
);
unicode = A770;
},
{
color = 10;
glyphname = parenleft;
layers = (
{
layerId = "03FD986C-C76B-4420-A04C-E6CCB975BB31";
paths = (
{
closed = 1;
nodes = (
"564 723 LINE",
"357 724 OFFCURVE",
"47 643 OFFCURVE",
"47 312 CURVE",
"47 -20 OFFCURVE",
"346 -63 OFFCURVE",
"577 -80 CURVE",
"577 -50 LINE",
"247 -35 OFFCURVE",
"90 87 OFFCURVE",
"90 313 CURVE",
"90 557 OFFCURVE",
"278 685 OFFCURVE",
"564 685 CURVE"
);
}
);
userData = {
com.schriftgestaltung.Glyphs.lastChange = "2019-03-11 19:49:30 +0000";
};
width = 600;
}
);
unicode = 0028;
},
{
color = 10;
glyphname = period;
layers = (
{
layerId = "03FD986C-C76B-4420-A04C-E6CCB975BB31";
paths = (
{
closed = 1;
nodes = (
"68 93 OFFCURVE",
"42 71 OFFCURVE",
"25 50 CURVE",
"41 29 OFFCURVE",
"66 2 OFFCURVE",
"80 -16 CURVE",
"103 1 OFFCURVE",
"125 23 OFFCURVE",
"143 40 CURVE",
"128 63 OFFCURVE",
"111 88 OFFCURVE",
"89 105 CURVE"
);
}
);
userData = {
com.schriftgestaltung.Glyphs.lastChange = "2019-03-11 19:49:30 +0000";
com.typemytype.robofont.mark = (
0.6,
1,
0.929,
1
);
};
width = 167;
}
);
unicode = 002E;
},
{
color = 10;
glyphname = question;
layers = (
{
components = (
{
name = period;
transform = "{1, 0, 0, 1, 11, 0}";
}
);
layerId = "03FD986C-C76B-4420-A04C-E6CCB975BB31";
paths = (
{
closed = 1;
nodes = (
"208 572 LINE",
"208 552 LINE",
"262 546 OFFCURVE",
"317 531 OFFCURVE",
"371 505 CURVE",
"380 464 OFFCURVE",
"345 424 OFFCURVE",
"269 424 CURVE",
"105 424 LINE",
"49 387 OFFCURVE",
"10 340 OFFCURVE",
"10 289 CURVE",
"10 245 OFFCURVE",
"33 190 OFFCURVE",
"96 147 CURVE",
"163 189 LINE",
"163 200 LINE",
"107 235 OFFCURVE",
"59 297 OFFCURVE",
"75 355 CURVE",
"163 372 OFFCURVE",
"248 364 OFFCURVE",
"317 355 CURVE",
"368 372 OFFCURVE",
"408 417 OFFCURVE",
"408 490 CURVE",
"408 569 OFFCURVE",
"370 600 OFFCURVE",
"286 632 CURVE"
);
}
);
userData = {
com.schriftgestaltung.Glyphs.lastChange = "2019-03-11 19:49:30 +0000";
com.typemytype.robofont.mark = (
0.6,
1,
0.929,
1
);
};
width = 418;
}
);
unicode = 003F;
},
{
color = 10;
glyphname = hyphen;
layers = (
{
layerId = "03FD986C-C76B-4420-A04C-E6CCB975BB31";
paths = (
{
closed = 1;
nodes = (
"18 82 LINE",
"33 55 LINE",
"329 318 LINE",
"276 353 LINE"
);
}
);
userData = {
com.schriftgestaltung.Glyphs.lastChange = "2019-03-11 19:53:09 +0000";
com.typemytype.robofont.mark = (
0.6,
1,
0.929,
1
);
};
width = 349;
}
);
unicode = 002D;
},
{
color = 10;
glyphname = o_exp;
layers = (
{
anchors = (
{
name = bottom;
position = "{192, 350}";
},
{
name = center;
position = "{192, 486}";
},
{
name = ogonek;
position = "{318, 357}";
},
{
name = top;
position = "{192, 623}";
},
{
name = topright;
position = "{336, 623}";
}
);
layerId = "03FD986C-C76B-4420-A04C-E6CCB975BB31";
paths = (
{
closed = 1;
nodes = (
"133 645 OFFCURVE",
"115 600 OFFCURVE",
"115 550 CURVE",
"115 481 OFFCURVE",
"157 439 OFFCURVE",
"195 439 CURVE",
"245 439 OFFCURVE",
"257 492 OFFCURVE",
"257 540 CURVE",
"257 609 OFFCURVE",
"224 645 OFFCURVE",
"184 645 CURVE"
);
},
{
closed = 1;
nodes = (
"116 401 OFFCURVE",
"40 453 OFFCURVE",
"40 541 CURVE",
"40 629 OFFCURVE",
"116 682 OFFCURVE",
"193 682 CURVE",
"264 682 OFFCURVE",
"337 632 OFFCURVE",
"337 545 CURVE",
"337 459 OFFCURVE",
"267 401 OFFCURVE",
"189 401 CURVE"
);
}
);
userData = {
com.schriftgestaltung.Glyphs.lastChange = "2019-03-11 19:56:47 +0000";
};
width = 377;
}
);
},
{
color = 10;
glyphname = r_exp;
layers = (
{
anchors = (
{
name = bottom;
position = "{158, 363}";
},
{
name = top;
position = "{158, 615}";
}
);
layerId = "03FD986C-C76B-4420-A04C-E6CCB975BB31";
paths = (
{
closed = 1;
nodes = (
"144 609 LINE",
"156 611 OFFCURVE",
"195 674 OFFCURVE",
"226 674 CURVE",
"240 674 OFFCURVE",
"246 674 OFFCURVE",
"259 673 CURVE",
"249 596 LINE",
"236 599 OFFCURVE",
"216 600 OFFCURVE",
"208 600 CURVE",
"178 600 OFFCURVE",
"155 591 OFFCURVE",
"146 568 CURVE"
);
},
{
closed = 1;
nodes = (
"147 568 OFFCURVE",
"144 473 OFFCURVE",
"150 456 CURVE",
"155 442 OFFCURVE",
"158 442 OFFCURVE",
"190 428 CURVE",
"190 408 LINE",
"146 415 OFFCURVE",
"82 412 OFFCURVE",
"45 407 CURVE",
"45 427 LINE",
"75 438 OFFCURVE",
"76 443 OFFCURVE",
"78 459 CURVE",
"83 496 OFFCURVE",
"82 537 OFFCURVE",
"82 567 CURVE",
"82 615 OFFCURVE",
"64 628 OFFCURVE",
"35 633 CURVE",
"35 643 LINE",
"57 651 OFFCURVE",
"87 668 OFFCURVE",
"134 684 CURVE",
"143 680 LINE",
"143 680 OFFCURVE",
"146 658 OFFCURVE",
"147 609 CURVE"
);
}
);
userData = {
com.schriftgestaltung.Glyphs.lastChange = "2019-03-11 19:56:51 +0000";
};
width = 271;
}
);
},
